<mxfile host="app.diagrams.net" modified="2021-05-22T07:53:20.218Z" agent="5.0 (Windows NT 10.0; Win64; x64) AppleWebKit/537.36 (KHTML, like Gecko) Chrome/90.0.4430.93 Safari/537.36" etag="vMdJgC-IGwFSKBRghMc5" version="14.6.12" type="github">
  <diagram id="U5jQIjZTTgGfWyene5wy" name="Page-1">
    <mxGraphModel dx="5209" dy="1765" grid="1" gridSize="10" guides="1" tooltips="1" connect="1" arrows="1" fold="1" page="1" pageScale="1" pageWidth="827" pageHeight="1169" math="0" shadow="0">
      <root>
        <mxCell id="0" />
        <mxCell id="1" parent="0" />
        <mxCell id="cyb73DFseKKlrXuI0wka-1" value="" style="shape=image;verticalLabelPosition=bottom;labelBackgroundColor=#ffffff;verticalAlign=top;aspect=fixed;imageAspect=0;image=data:image/png,iVBORw0KGgoAAAANSUhEUgAABH4AAAJJCAYAAADcGvA2AAAAAXNSR0IArs4c6QAAAARnQU1BAACxjwv8YQUAAAAJcEhZcwAADsMAAA7DAcdvqGQAAPNXSURBVHhe7N0FdFRXFwVgCCGEKAGCu7u3WCluhZZipVBKadFCoWhxKRR3d/fiTinu7k7cXQgJIYR//zmPl5mkBUqGyMj+1nqr5b6ZEHuPuXvuPScdiIiIiIiIiIjIKDH4ISIiIiIiIiIyUgx+iIiIiIiIiIiMFIMfIiIiIiIiIiIjxeCHiIiIiIiIiMhIMfghIiIiIiIiIjJSDH6IiIiIiIiIiIwUgx8iIiIiIiIiIiPF4IeIiIiIiIiIyEgx+CEiIiIiIiIiMlIMfoiIiIiIiIiIjBSDHyIiIiIiIiIiI8Xgh4iIiIiIiIjISDH4ISIiIiIiIiIyUgx+iIiIiIiIiIiMFIMfIiIiIiIiIiIjxeCHiIiIiIiIiMhIMfghIiIiIiIiIjJSDH6IiIiIiIiIiIwUgx8iIiIiIiIiIiPF4IeIiIiIiIiIyEgx+CEiIiIiIiIiMlIMfoiIiIiIiIiIjBSDHyIiIiIiIiIiI8Xgh4iIiIiIiIjISDH4ISIiIiIiIiIyUgx+iIiIiIiIiIiMFIMfIiIiIiIiIiIjxeCHiIiIiIiIiMhIMfghIiIiIiIiIjJSDH6IiIiIiIiIiIwUgx8iIiIiIiIiIiPF4IeIiIiIiIiIyEgx+CEiIiIiIiIiMlIMfoiIiIiIiIiIjBSDHyIiIiIiIiIiI8Xgh4iIiIiIiIjISDH4ISIiIiIiIiIyUgx+iIiIiIiIiIiMFIMfIiIiIiIiIiIjZcTBTwyCH5/FrmWTMfTnH9Gp3Vdo1qwl2nb6CX2GTsbKvZfh9kx9KBERERERERGRETLC4CcWflc2Ynzn6shjYQbzrCVQt1039BsyAmNGD8Ov3dujfulsMDczg1WRhvhl4d9wjlSfSkRERERERERkRIwr+In1wZl5nVHB3gxm5vnRcOBqXPSNUU8mEOOHqxuHo1kRS5iZmSNf41HY7xKtniQiIiIiIiIiMg7GE/zEOGNn/+pwMEuHdOaF8fWciwhWT73Ls1tL0aGYBdKlM4NtuR+w6g6X/hARERERERGR8TCS4CcYZyY2gKOEPuksUPzHrXCLVU+9Vyw8tvdASQt5nhnsPhmCQ74f9EQiIiIiIiIiIr1nFMFP6KlRqGFrhnTp0sHMoSnm3HvL9q53ibmPec0cYBb33HRmlijX/wD81VNERERERERERIbM8IOfmEdY/JXjm+AmnRkc26+Ee5IW7cTCfWV7ZFNWC6WDmV0DTL/Jej9EREREREREZPgMPviJvjYJdazerPZJZ2aLFgueIAnrfRQxTxbgC3XFULp0lqg84jRY7YeIiIiIiIiIDJ2BBz8xuDerMayVwCbusCiP307oENlEnsBv5aXI85uPY1VrAi5z0Q8RERERERERGTgDD35Csa1rTnWbV9xh/QUWPE3qep84sc5Y1NJWE/yY2XfAGj/1HBERERERERGRgTLs4CfmEeY1s9YENunsOmJ9iHouScKxpUtWbYBkVRdTbnDJDxEREREREREZNsMOfqJvYmo9K+1KHYcu2PpMPZckEdjdKx/M44Mfy+oYdyFKPUdEREREREREZJgMfMXPA8xpmhwrfiKwq2dervghIiIiIiIiIqNi4DV+grHxuwRbtKxb6FbjByHY1NlB83HM7L9hjR8iIiIiIiIiMngGHvxE4/KEmrCKD34sKmDYSR26esU8wtwEK4csq4/DRe70IiIiIiIiIiIDZ+DBDxBxdDDKWqjBj5kdvlrsjFj13AeLOIB+xczV4McC5YceQ4R6ioiIiIiIiIjIUBl88IOIMxhZ1VINbcyQs9N6+CQx+Ym6NB41LN+ER2ZWNfE7l/sQERERERERkREw/OAHMXiyoh3ymqvBTY62WO6UlOQnEufHfQpLJTgyR9GuW+Ce5CVDRERERERERET6xwiCnzhRt7GgVd437djNrFB12DF8aHOvWJf16FxYtnmZwaJEV2xy1qU4NBERERERERGR/jGO4CdOjOtO9Ktqp3TmMrP9FEMO+fx3rZ/Qq5jfprASGJnnaYI/TgW88znu7u5YuXIlZsyYgQULFuDs2bN4/fq1epaIiIiIiIiISP8YTfAjop1247f6eWFulg7muepj2K5HeKae+6dnj/ZifMvCsDAzg13577H4cpB6JrFTp06hZs2ayjayfx558+bFpEmTEBvLvWFEREREREREpH+MKvhRhN/Hrt87oJKjOczMHVGpdX9MWbkdh46fxbnTR7Fv6xJM6PMVKsp52xJoNmApzni8fXvX/PnzkSFDhreGPgmPL774AuHh4eqziIiIiIiIiIj0g/EFP6ooz8vYMW8kerZtiGol8yGrtSUs7XKhcOnK+KxlVwydsR5HHwSrj/63S5cuvTXkedcxaNAg9ZlERERERERERPrBaIOfj9WwYcO3BjzvOjJlygQfHx/12UREREREREREaY/BzztYW1u/NeB537F06VIWfCYiIiIiIiIivcHg5x1y5Mjx1nDnv46sWbOiffv2WLx4MR4+fIj//e9/6kckIiIiIiIiIkpdDH7eYciQIW8Ndt51pE+fPtF/44/cuXOjY8eOWL58OZycnBgEEREREREREVGqYfDzDkFBQcrqnYQhzvuOOXPmYM2aNahdu7ZmzMbGBtmyZUv0uPz586NLly7KY93c3NS/jYiIiIiIiIgo+TH4eY8nT56gTJkyiYKbfx7xK3wcHR2xefNmZUWPbPGSFUMyFv+4ChUqoEGDBihUqJBmTI4iRYqgW7du2LhxI7y9vdW/mYiIiIiIiIjo4zH4+Q/Pnj3D3LlzUatWrUSBTd68eTFgwADcvn0bq1evhoODgzL+xRdfwN3dXXnuy5cvsXPnTjRv3hxmZmbKeQmDevTogUmTJikrf/Lly5fo45YsWRK9e/fGtm3b4O/vr3wcIiIiIiIiIiJdMPhJgvDwcHh4eCAgIOBf3bt8fX3xzTffKOGNbPGaP38+YmNj1bNQnjdhwgQULFhQE/JImLRq1SolPJIaQFILKFeuXJrzcpQrVw79+vXDrl27EBwcrH40IiIiIiIiIqL/xuAnme3bt0+ziqdGjRq4d++eeuYNCYz+/vtvdOjQARYWFsrjbG1tlVVAly9fVs4/ePAAixYtQrt27ZA9e3ZNCCTbyipXroxBgwZh//79CAsLUz8qEREREREREdG/MfhJAbIyqG/fvkpQkzFjRowdOxbR0dHqWS0pIC3byMqWLasJd8qXL6+MyTkhQdCdO3eUsVatWiFLliyax8r2sU8++QTDhg3DkSNH8Pz5c+U5RERERERERESCwU8KOnfuHEqXLq2ENKVKlVL+/DZSEPrSpUvo3r27sk1MHi+rgb799ltldVDCbWWyfez69euYMWOGUk9IVgvFB0Hm5ubK9rFRo0bh+PHjiIqKUp9FRERERERERKaIwU8Kk5U+48aNU1b+SDjz888/v3eLVkREhFL3p2bNmppARzqBTZw4EZ6enuqjtF69eqWERlOmTEHjxo2ROXNmzfMkPKpbty7Gjx+P06dPv3XVEREREREREREZLwY/qURq/UjNHwlkpCPY3r171TPvdv/+faWeT3ydH9naJat8pNBzTEyM+qjEpJPY2bNnlULS9erVQ6ZMmTRBkIRCjRo1UjqKXbx48Z0fg4iIiIiIiIiMA4OfVCTbtBYuXKjZztW+fXulG9h/kTBn+/btaNq0qVI3SJ6bI0cODB06FI8ePVIf9XYvXrzAiRMnMGbMGNSuXVvZDhYfBMnnIa3mp0+fjqtXrybqQkZEREREREREho/BTxqQ1u4tW7ZUwhcp1ixbu6TOz4dwc3NTtm4VKFBAE+DUqVMHa9euRWRkpPqod5MC0H/99ReGDx+O6tWrI0OGDJqPY29vj6+++gpz5szBrVu3/tWynoiIiIiIiIgMC4OfNCJBz9atW5WVOxK61K9fH0+fPlXP/jdZnSOdvGTVUHz9IDs7O/Tu3VtZvfOhQZJ0IDtw4AAGDx6MKlWqaFYUyZEtWza0bdtWWaUk284+9GMSERERERERkX5g8JPGgoOD0bVrVyVosbS0xNSpU5WCzUkREBCAWbNmoUyZMprQpmLFiliwYAFCQkLUR30Yefzu3bvRv39/pbV8/MeTI2fOnEqnsWXLluHJkycMgoiIiIiIiIj0HIMfPSFt2wsXLqwELJUrV1ZatieVBDEXLlzATz/9BGtra+VjSXHnTp06KXV+dNm6JaGS1BeSbmTSkj5hECRFqjt37ozVq1fD1dVVfQYREaWl2Nf/w0O/SGy+7o+he53QaPEttF9zXz1LRERERKaGwY8ekRo9UrBZunfJMWTIkA+q2/M2z549w4oVK5Q6PvFBTZEiRZSOXt7e3uqjks7HxwebN29G9+7dUbRo0URBkLSd//HHH7FhwwZ4eXmpzyAiopQS/eo1rns8w8qLPui74wlqzb0B69/OIN2AU4mOegtuqs8gIiIiIlPD4EcPXbt2DZUqVdKENbIa6GPcvXsXAwYMQNasWZWPKaHSl19+iT179nx0S3cpVL1u3Tr88MMPiQpOy1G8eHH07NkTW7ZsgZ+fn/oMIiLSxbMXr3DWOQzzT3vhx80PUWn6VWQcdPpfIc/bjs/nM/ghIiIiMlUMfvSUBDJS70fq/kiIInWApB7Qx4iOjsa2bdvQuHFjTTiTK1cupcOX1Oz5WLLVzNnZGStXrsR3332H3Llza/4eOaQGUd++fbFjxw4EBQWpzyIion8KjIjB0UfBmHrMHR3W3keJSZeR/i2BzruOIhMvodDvFzV//mzeDfUjExEREZGpYfCj56TTl3T8kuBEOoBJJ7DkKKosNXnGjh2LfPnyaYKZunXrYv369TpvL/sn+TwfPXqEJUuW4JtvvoGjo6Pm75JDClDLSqS9e/ciNDRUfRYRkemQ+6R7yAvsuROIsYdc8eWKu8g37kKiEOd9R4aBp1Bu6hV8v/EBZp/0xKmnoQiLetMgQLaAxT+uNoMfIiIiIpPF4McAyMRg1apVyJIlixKYtGzZUtlilRykLfyhQ4fQpk0bmJubKx/f3t4effr0wY0byTtRkK9Dtp3Nnz8frVu3hoODgyYEku1n1apVU2ocyecjNYqIiIxJwqLLQ/Y6oeGiW8g68lyiIOd9h+WQ0/h09nX02vYYS89744p7OKJexqof/d9uekVonltzDoMfIiIiIlPF4MeA+Pr6on379kpQYmNjg4ULF+rUqetdpA7PjBkzULJkSU0gIx3GFi1alCIrcuRzl3BJWtFLmGVnZ6f5ezNkyICaNWti5MiRSo2j5FqFRESUGhIWXe6z/YkSvFgN/XfR5Xcd9sPPKgWZB+5+ivVX/HDP5zlexSZttedtb23wU3120jtFEhEREZFxYPBjgKQoc548eZSApFatWrh/P3nb9MrKnHPnzil1haysrJS/R2oNSev2U6dOKedTwqtXr3DlyhWltlHTpk01LenlsLCwwOeff45x48Ypn4PUKyIi0gf/LLpcMQlFl+XIPfYCvlh2B6MOuGDHrQC4BEUly332ToLg55NZDH6IiIiITBWDHwMVFhaGn3/+WQlFMmbMiPHjx6dIGBIeHo5ly5bhk08+0YQw0q1rypQpSmv3lCQFrs+fP4+JEyeiQYMGmkLXcsj/y9gff/yhPOZju5MREX2IgIiX+Ouhtuhy8T+SVnS56MRLaLfmHiYddcOhB0HwDX+pfuTkJ6uE4v/earOuqaNEREREZGoY/Bi4s2fParZmSdcsCUFSyu3bt9G/f39NbR7ZjtWqVSvs27dPWa2T0l68eKGs9pGi1HXq1FECr/ggSFYHySqhadOmKauGUuPzISLjJStu3IJfYHeCost5k1h0ufy0q+iy8SHmnEpcdDm1PPDTBj9VZjL4ISIiIjJVDH6MgAQiY8aMUYozp0+fXmmZnpLFkeXv27x5Mxo2bKgJXqR1u9TjcXJyUh+V8qTuj9T/kb+3Ro0aShAV//lIvSCpGzR79mzcvHkzWWshEZFxkaLLEpJsuuanc9FlqaHT+8/HWPYBRZdTyyP/SM3nWGn6VXWUiIiIiEwNgx8jcufOHVSvXl0JPqRN+/79+9UzKcfZ2RmjRo3S1BySQ9rPb9q0SQmIUpOEXdIRTDqDSYcw6RQW/zllzZpV6SQmHcXu3buXYnWKiEi/SdHlax7PsOKCbkWXsww/i/oLb2HQbidsuKpb0eXU8jhB8FNhGoMfIiIiIlPF4MfISHv2efPmaQojd+jQQenWldJka9WBAwfw9ddfa9rCy5awX375Bbdu3VIflbqkE9nevXsxYMAAVKxYURMCyZEjRw588803WLJkCR49esQgiMgISdHlM06hmHfaE103vSm6bD7o32HOuw4putxi+R2MPuiCnbeTr+hyankaEKX5WmTbGRERERGZJgY/RsrNzQ3NmzfXBDBr1qxJtQmLtJ2XWjtSBDo+aJEVOBKySFHqtBIYGIgdO3YoW+GkHlL85yaHrFj67rvvsHLlSmUVE4MgIsPi/+wljjwMxpS/3fGNWnQ5YYjzX4cUXW6/5j4mxz3/8INg+MV9PEPnHKgNfspOvaKOEhEREZGpYfBjxCS8kC1X2bNnV8INqckjoUZqkb//9OnT6NKlCzJnzqx8DvLfH374AWfOnEnzcEUCqi1btqBnz56JQio5ChYsqLSzX7duHTw8PNRnEFFak/uGa/AL7LodgDGHXNBy+R2dii7/sOkh5p7yxGmn1C+6nFrk+xT/dZeezOCHiIiIyFQx+DEBstLl+++/1wQvM2bMSPWuV7LSR1b8VK1aVROulChRAtOnT0+VrWgfwtPTE+vXr8ePP/6IQoUKaT5POYoVK4YePXooRa0lMCKilCdFl+/7PsfGq34YvMcJDRbdgsOIDy+6nHnoGaXo8s9/PsbyCz646v4ML2JMp9C7dCWL/16UnHRZHSUiIiIiU8Pgx4QcOXJEWckiQUaVKlVw48YN9Uzqkr9XtltlyZJF+VykJpAUXj548KBSo0hfuLq6YvXq1ejcuTPy5s2bKAgqVaoU+vTpg+3btyvBGhF9HAlkJJiRgEaCmhpzrutUdFkCIgmKJDDS16LLqcUjRBv8yNY3IiIiIjJNDH5MTEREBAYOHKh0vJL258OGDUNUVJR6NnXJ37tx40bUq1dPE6hIwDJ69Gi4uLioj9IPsr3kyZMnWLZsmVIwW4pDJwyCypcvj/79+2PPnj0ICQlRn0VEbxP+4pWyxUq2WsmWK+k4lZSiy3nUosuy1Uu2fMmWprTeOqqPvEKjNd+zYn9cUkeJiIiIyNQw+DFRV65cQYUKFZTQQrYxnThxQj2TNp4+fYoRI0YgV65cmjBFahJJDZ7Ubgv/IWSSef/+fSxcuBBt27ZV2sXHf97p06dXVlQNHjxYWcUkbeaJTJUUSZZiyVI0WYonSwCRMMT5r0MeL8+Tos1SvFmKONOH8QnTBj9FJjL4ISIiIjJVDH5MWExMDCZNmoRMmTIpgUW3bt3SfLWK1B6SFuxfffWVsiJJPi8JVWQ1zZ07d9RH6Z/Xr18rbevnzJmjfO729vaaIEi+jurVq2P48OE4evQoIiMj1WcRGY/4osvS9lzan8uKHFmZkzDEed8hK35k5Y+sAJL269KGXVYGke58w19qvr+Ffr+ojhIRERGRqWHwQ3j06BE+//xzJaTImTOnUrdGH7ZN+Pj4YMqUKShatKgmRPn000+V7Vbh4eHqo/ST1Cq6evWqUrxa2urb2NhovoaMGTPis88+w5gxY5SVVvq4oonofeKLLm+46odBu52U2jpJLbosNXykls+KCz645mFaRZdTi6yOiv+eFxjP4IeIiIjIVDH4IYWsWFm+fLlmpUqrVq3g5eWlnk1b8rmdPHlSKbJsaWmpfH5WVlZK961z584ZRG0PWV114cIFZYVVo0aNNO3t5ZAVV/Xr18eECRNw9uxZvHzJrSykP+KLLi87743efz5WumRJcJMwyHnfIYGQdOOSosubrvnhgd9zJTiilBcYEaP5OeRn8ENERERkshj8UCLe3t5Khy0JJOzs7JQW7BK86AvZiiZ1dSpVqqQJTqTD1syZM+Hv768+Sv9FR0fj9OnTGD9+POrWrQsLCwvN1yOhVpMmTZTVTpcuXUr11vtkuuKLLs855YkuGx+i/LSryDDw32HOu4684y6gZYKiy9JOnEWX007wc23wIz8bIiIiIjJNDH7orXbu3IncuXMrQYRsS3r48KF6Rn9cv34dP//8s2aVkmyhkkLLhw8f1qu28B9COpwdP34co0aNQq1atZQW9/FBkK2tLVq0aKGEW/I1G9rXRvopYdHldmvuoejEpBVdlvbg36xl0WV9FhKpDX5yj2XwQ0RERGSqGPzQO4WGhqJnz55K+CArUiZOnKiX25CkWPL69es1dYrkyJ8/P8aOHQtXV1f1UYZF2u4fOXJEabf/ySefKO334782BwcHfP3115g3b55S8FqfVmSR/pEVNy5BUZqiy18su6OEAAlDnPcdUnS54vSr6MqiywYnLOqV5ueYc/R5dZSIiIiITA2DH/pPp06dQvHixZXQoVy5csr2I331+PFjJSyRItXy+Upr9caNG2Pbtm3K9ipDFRYWhv3792PQoEGoXLmy8nXFB0HZs2dHu3btsHjxYmVlFrfWmK5Xsf/DPR9t0eV6C24iy/CziYKc9x1WQ8+g5pwb6LP9iabocvQrBouG6tkLbfCTg8EPERERkcli8EMfRDpPjRw5UtmCJKGDtFeXVSn6Soop7969Gy1bttSslsmWLRsGDhyIe/fuqY8yXMHBwdi1axf69eunhHHxIZAcskWvY8eOWLFiBZycnBgEGSkpunzFPVxTdPnT2ddhOeR0oiDnfUfWkefQcNEtDNnLosvG6nl0rObnnX3UOXWUiIiIiEwNgx9Kklu3bqFatWpKwFCgQAEcOnRIPaO/pDvZH3/8gSJFimjCkRo1amDlypV6HV4lhRS2llVNvXv3RsmSJTVfpxyy7a1Lly5Ys2YN3Nzc1GeQIZEtO6eeaosul5t6JUlFl/ONu4AvV9zF2EOu2H0nkEWXTUTUS23wI0EfEREREZkmBj+UZFJcePbs2Ur3KQkWOnXqhICAAPWs/pJaOFJAWVbDSAt1+dytra3RrVs3XLx40agmwtKdbePGjcrXljDwkkP+LONyXh5H+sU3/CUOPQjCpKNuStHlIkksulxi0mV0WHsfU4+546+HwQiIYNFlUyWrwuJ/L2TLHxERERGZJgY/pDMXFxel7biECbKNSgosG0p4Ilul5s+fj/Lly2sCkTJlyiiBVmBgoPoo4yErfWTFj6z8kRVA8V+zHLJCSFYKyYohQ2qJb+jkWnEOjMKOWwEYdeBN0eVcY84nCnHed0jR5UrTr+LHzQ8x/7QXzjqHKTVdiOK9fKUNfuwZ/BARERGZLAY/9FFk8iqBT9asWZUQQYIgCYQMhXz+V65cQa9evZS26fI1SFv49u3b46+//jLKjlnyNUvtn+XLlyurn3LlypUoCJKaQVI7SGoISUBGH0+KLt/1eY71V/wwcPdTpeiyTMQTBjnvO6Tocq25N9B3xxOsvOiD6yy6TB9Afu/if4dshzH4ISIiIjJVDH4oWchKEdnyJcGBbAGTlTOyJcyQPH/+HGvXrsVnn32mCUEKFiyI33//HR4eHuqjjI8EQdINTLqCSXcw6RIW//VLIW/pIibdxKSrmHQXo/eTuiqX3cKx9Lw3em3Trehyo8W3MHSvEzZf98dDv0gWXSadvI77vYn/vbL+7Yw6SkRERESmhsEPJauDBw9qthJ98sknuH37tnrGsEgQMmTIEDg6OmoCkGbNmmH79u14+dK4a6bIKqc7d+5g3rx5aNWqFbJkyaIJgqRDmvxcpWX+kSNHlLDMlIVGvcLJp6GYfdIT3298oHPR5XGHXbHnTiDcQ1h0mZKP/C7F/65lHsrgh4iIiMhUMfihZPfs2TOl3buEJdL+XdrASzt4QyQhz86dO9G8eXNNW3gJgwYPHowHDx6ojzJusnLr+vXrmDlzJlq0aKHZEieH/Hxr1aqF0aNHK4Wzo6Ki1GcZH5+waBy8H4Q/jrqh7eqkFV1OH3fEF12edswdRx+x6DKljvjfQVl1RkRERESmicEPpRjplFW2bFklIChRogROnTqlnjFMst1rwoQJyvav+OBDQo/Vq1cbTVv4D/Hq1StcunQJU6ZMUWo6xXd3k0O6pdWtW1fZHnfmzBmDXB2l1EAKjML2mwEYecAFzZcmrehyxkGnNUWXF5zxwjkWXaY0ZKauQLMYzOCHiIiIyFQx+KEUJRP/iRMnwsLCQgkGevbsidDQUPWsYZKtUH///Tc6dOig+bpsbGzQo0cPXL582eS26sjP+OzZs0ooVr9+fU2rfDkyZ86MRo0aYdKkSUoQGBMToz5LP0jx2zveEVh3xRcDdj1F3SQWXZa6KfFFl1dd8sENTxZdJv0i3d/kd1X+S0RERESmicEPpQqpmRNfNDl37txKxyhjEBQUhLlz5yqdsOLDDmkRL2NyzhTJtr4TJ05gzJgxys9cuqTFf28kIJNtc9OnT8fVq1dTtQC4FF2+5BaOJee80XPbY3wyK2lFl7P9o+jyI38WXSb9JyvQ5PdXVv4QERERkWli8EOpRlbKSOeo+Boxbdq0gbe3t3rWsMkqH9n+JKt+JNyQr09WA3377bfK6iBjbAv/oaQA9NGjRzF8+HBUr14dGTJk0ARB9vb2+OqrrzBnzhzcunUr2b5PUnT5xJMQzDrpgc4bHqBsEosu5x9/EV8lKLrswaLLZKAyDX4T/EidKSIiIiIyTQx+KNV5enoqk/34if+yZcuMKhiRej+rVq1S6v/EBxyFChVStrzJ127qwsPDle5v0jWtSpUqShHw+O9TtmzZ0LZtWyxcuBD379//oLBFii4fuBeEiX+5oc2qeyg8IWlFl0tOuoxv12mLLgdG6Nd2NKKPId284n/fGV4SERERmSYGP5QmZAIirdFz5sypTPilIPDjx4/Vs8ZDwotBgwYhe/bsytcpncG++OILZaubvtW7SSshISHYs2cPfv31V2WbXHwIJIf8ftSpUwedOnVS6ic99ovAnzcDMGK/M5otvY2co5NWdLnyjGv4afMjTdHliOjU22pGlBakDlX8NfCaWxOJiIiITBKDH0pTMunv1q2bMsmXosBSBNgYAxEpgCxBV9OmTTUrXHLkyIGhQ4fi0aNH6qNIBAQEYMvWbejwQw/kLlgsURCULmNmpMtfBek+/R7pWk1Dun5/Jwp34g+Z7NaedwO/JCi6/JJFl8kE2SQIfqSYORERERGZHgY/pBeOHz+OokWLKpP7ChUq4MqVK+oZ4+Pu7o7x48ejQIECmkBDVrWsXbtWqYdjaiITFF3usfURqs26pqlLohydliNdja5IV7k90uUqg3Rm5m++b+kzIN0vfyH7qHNovPg2ftvnjC3X/fHQ7zlXNhCp7IZpu9TFxDL8JCIiIjJFDH5Ib0RFRWHYsGFK8V/ZEjVw4ECjDkKko9WRI0fQvn17TecrOzs79O7dW+l4ZYz1OEIiYzRFl7/b8ABlplxRug1pQp7/OAqMv4iWS66h2+ydGDB50b+KLsvvkGyra9KkiRKu/fXXXwgLC1PPEpmeLMO1wU80V70RERERmSQGP6R3bty4oRT9lSBEiiJLOGLsZHvTrFmzUKZMGc0qoIoVK2LBggXKdjhDI2GM9z+KLhf6/WKiEOd9hxRdLjX5Mjquu4/pxz3w96MQBD3/7y2ALi4uqFatGszN1VVBcYdsrZN2+1IwmsjUZB15TnNdRb1kTSsiIiIiU8Tgh/TSq1evMGPGDGTOnFmZvH///fcIDAxUzxovCUwuXLiAn376CdbW1srXLrWPpLjxiRMn9LL7mWyrehoQlajoco4kFl2uMvMaum15hIVnvHDe5eOLLkdGRuLMmTOYNm0aWrVqpdRTmjx5snpW68GDB8o2Q+nERqkkNhzuN09i/7YNWL1yJVat24Qdh87irk+k+gBKTtkSBD/PWcyciIiIyCQx+CG95uTkhIYNGyoBiGzh2bRpk1FugXqbZ8+eYcWKFahevbpm9UqRIkWUAtje3t7qo1KX1Ai57R2BtZd98euup/h8/k3YJqgh8l+HFJqVosv9dj7B6ku+uOkVkSpFl+V3Rgps/5NsJ5Tvq2wtrFSpEn7++WesX78eT58+NZnfs1QT442zSwfgy/KOsIj7fls5FkSxIrlgZ2725mdgmQdV243Apluh6hMoOTiO0oaw7GJHREREZJoY/JDekwn4mjVr4ODgoEwQmzdvDjc3N/Wsabh79y4GDBiArFmzaoKKli1bKm3QU6oLmhRdvugajsXvKrr8H0d80eVh+5yx9YY/HvtH6l3R5WvXrilBmnwvs2XLpnxv4w9ZDUTJJPoRNvWsDHuzuN/drDXwy7qr8FN+bWMR/vRvzO1cHtZx59KlM4NF0U5Y89j4OvullZwJVt+Fv3iljhIRERGRKWHwQwbDz88PHTp0UCblsg1q3rx5SoFkUxIdHY1t27ahcePGmoDi008/VeoA9e/fH9evX9dppYoUXT7+OAQzT+hedLnVyrv4/Ygr9t0NhGdotMGtmJHP9/Hjx0p3tX79+r11W51sG5NzmzdvhqurK1cFfZAY3JvfEjmUYMcC5QYfxTP1jEbwYQwoZ6H+Tlui0ohTiFJP0cfJPfaC5joNjWLwQ0RERGSKGPyQwdm3bx/y5cunTBJlG5SshjFFEjyMHTtWKQAtK6LigyBphz9nzhylYPQ/SVDhFRqN/feCMOGIG1p/RNHlGcc9cOzxhxVdNgbSHSxLliya77McuXLlQps2bZSwiN4h5i5mNHxTrypdOivUm3YL0eoprQjs71sE5ur31fbrpXDjrqRkkSdB8BNsItcqERERESXG4IcMUnh4OPr27at0bJIOTmPGjMGLFy/Us6ZHAh0pZvzjjz9qikJLW/xGzVti3p5LGL7fGU2XJK3ossVgbdHlRWe9cME1zOSLw8oqoPv372PlypVKAe7SpUsr3+uuXbuqj9CSVVienp7qn0xY9E1MrWelBj/WaDrnAf4dP0TjxuTPYaUGP1b1puLWv9Mh0kG+cdrgx1RCWiIiIiJKjMEPGbRz585pJt+lSpXC2bNn1TOmRYou3/KKwJrLvui98RZKfPc7MuSvhHTpMyBdj12JAp23HVJ0+TO16LJ8DPlYqVF02RgEBwe/NeBZunSp8nspq9Pat2+vrMK6dOnSW4tMG7cYPN0+CI1LF0GZpkOw0/lt4UMM7s9uAuv44Kf2RFxh8JMsZBtm/HUeEGFqv3tEREREJBj8kMGTujfjxo1DxowZlUmjdGaSbTnGSlbdyOobWYXTfesjVJ15TVmdkzDI0RxvCX2yjzyLMt+NQ/9N17Hthj+eBOhf0WVjIO33f/jhB5QoUUL5vYw/pD3/qVOn1EeZuGgfXNuzECO6NEAJB3OYqd8jq1oTcJnBT7JIuJXT7xmDHyIiIiJTxOCHjMa9e/dQs2ZNZeKYN29epeOVoZOaHFJHR+rpdFr/AKUnJ63ocsG4Sd/XatFlqesj9X3+/vtv5XtkYWGhrEQ5ePAgXr1i0deUFBgYiP3792PkyJGoV6+eUqj8n6ZOnarUa5JOYynVqU1fRLqexfqJPdCkpAPMHUqhSfdxmNzzU+1WLwY/yabIxEua+4FPGL+pRERERKaIwQ8ZFanBsnDhQtjY2CgTyHbt2sHX11c9q7/iiy5LRywJaSSskdAmYYjzvkPCIAmFJBySkEg6dL2rkKvUR1q+fDlq1aqlfI/kyJ07N4YNGwZ3d3f1UZSa5Pc2YeHozJkzo27duhg+fDgOHTqkPsrwRbufxtJBLVHGwRy2JZqi74ztuOojYUQMHsxpqt3qxeAn2RRNEPx4M/ghIiIiMkkMfsgoeXh4oEWLFsokUibUUoxXX1pvy7Yq2V619YY/hu1zRpMlt+E4KmlFl2V7l2zzku1eF13DdS66/OjRI4wYMUJZISXfq4sXL6pnKLXJKiBZpfbbb7+hTp06sLS0VH4msortn2JjYw1slVYE7m/7DY0LWsLMPCfq9FuLawEJf2cZ/KSU4n9c1tw7PEP5TSUiIiIyRQx+yGhJ0LN161Y4Ojoqk8n69evj6dOn6tnUEV90efUlX6VwshRQth12NlGQ875DHltn/k303/lUKbp82ztC+ZjJTYIEqUnztnDs6tWryooUSl1SBPrKlStKt7Z/kp+VrGpr0KABRo0ahQMHDiAoKEg9q28icWdFR5SwNEM6MzvUHHEUfv/KKRn8pJSSk7TBj3uI6XY+JCIiIjJlDH7I6MmEWNpty4SyUaNGmDlzphJ0JLf4ossLz3gpLdClFfo7iy6/5ZBVP9JyXVqv60vRZVdXV+X7lj9/fowePTrVgzN6O6nTJCuBpE6T/Hzij5IlS+rd1rCYe/PRwtFM+fzM8/+Ibf8ubxSHwU9KkS2g8fcY12AGP0RERESmiMEPmQyZLBcrVkyZWNaoUQMPHjxQzyRdfNHl6cc90HHdfZSafBnpE4Q4/3VIp53Wq+5hwhE3TdFlfdmKlpC3tzeGDBmCnDlzasIF2Ya0atUqPHv2TH0UpRXpaHfhwgXMmjULbdu2RZ48eXDu3Dn1rJaEQUeOHEFoaKg6klr+EejUm4pbbw10Ej/OsubvuBSlnqKPUmaKNvhxCeI3lYiIiMgUMfghkyJhRd++fZXJpbTVnjJlyntrpUgYI3UxpOjy+MOuaLXyLgqMT1rRZZl4fbfhAWaeeH/RZX0mXaakK5WEC/Ft89evX6+eJX0hv69vCxCrVaum/MzSp0+PsmXLonv37li9ejUePnyYwoFjFM6MrAJLNdCxKPkrDr81L4zBnRkNNV29LKuNxtn4jCI2Bsm/Ps90lJuqDX6cAhn8EBEREZkiBj9kkk6dOoWiRYsqk8yqVavC2dlZ2Vb12P9N0eXf9jmj8eLbyD7qXKIg532HbOuqNusaemx9hMXnvJWiy5EvjW/KKq3J58+fj+fPn6sjWmFhYer/kT45f/48pk2bhq+//jrR6q3s2bOncPCTeCVPOvN8aLP4DiLUs4ooVxyb8wOqZH2zHUwO88I/Y68ERKHXsfzXSTic6AmUFBWmXdXco2T7KBERERGZHgY/ZJJevnqNC0/80LhDD1hnzYnqU07B5rcziYKc9x1SdPnz+Tfx666nWJuCRZcNSVRUFBwcHJSCw7IaKDKSk0x9JEGPBJ0bN27EkiVL1FEtLy8vVKxYEb1791Z+jlLX6WPCoejrU1DPVhvqmFkWRpN+07Fy82asnDEY7avmQd46/TB7aOMEAVHcNfltL3SuUxoNxp1EgPqxKOkqTdcGP4/8eU0SERERmSIGP2T0pOjyeZc3RZd/2vwIlWf8o+hyn0Pa/3/LkWP0eTRbehsj9jvjz5sBeBoQleZFl/WRp6cnvvzyS2TIkEGZvNva2qJbt25KzZmUXVVCyens2bPIli2bJqiRQzrjffXVVzh8+LD6qKQIwPGxdeFopv148YeZRV7UG7ABt0KByCMDUcoiwXmzbKjRbxses8jzR5H7Xfy97KEfgx8iIiIiU8Tgh4xK0PMY/P1IW3RZWhkntehym1X30H/FMey+6QPvMP0suqzP/Pz8lM5pUksmfhI/Y8YM9SwZAvmdf/LkCdauXYtevXqhQoUKMDMzU4p6/5M8Trq/vfc6ifXD+ZVD0L5WCeSwtYZD3tL4rG0/zD74RLvtK/ohNveri8IOWVGwaisMWn4OPizu89GqztQGP/d9/709k4iIiIiMH4MfMkgyyfQIeYG9CYou59eh6HLnDQ8w66QHTjwJQUjkm6LLUqcmb968KF++PK5du6aMUdLJz+jq1avo06cPnJyc1FEtBmqGJTw8HBER/y620759eyXcy25ri6+/+kqpn0X645NZ1zX3vbs+DH6IiIiITBGDH9J7sq1KalNsua5b0eVMatHlntseY8k5b1xye3/RZWmRPXLkSGXLkhwjRoxQxij5SOgjbeF//vlnXL58mSGQARvz22/a7VlxR9UqVTBu3DgcPHgQAQGszpPWqs/WBj9Si4yIiIiITA+DH9IrUnT5huczrLrkg192PEHteTdgnYSiy3Zq0eUBu55i3RVf3PmIosuy2qdcuXLKZLZMmTJKQEHJQzqDlSxZUhMWyPd3+vTp8PX1VR9BhsJ7/QbMzmyPLmaZUCyzpbIlLP7nKkehQoWUVUGy3U9WA71t1RClnBpztMHPTS9+74mIiIhMEYMfSjMR0bE45xyGBQmKLmcclKDo8n8cORMUXd5+MwBOgclfdPnly5cYO3YszM3NYWFhAR8fH/UMfSxZ5XPhwgX07NkTdnZ2SkggK6wkACIDERyMgJZfIThTdgRltEewXQbcqFIE5+bPx+zZs9GxY0cULVo0URCUPn16pf5T165dsXjxYmU7oFxnlDJqzb2huWdKqE5EREREpofBD6WKwIgYHH0UjGnH3PGtDkWXC0+4pBRdnviXGw7eD4JPWOpuvbp58+ZbW19T8pDW75s2bUKjRo1w9OhRdZT03tz5cMqaE2716gInT8K1fBkE2NrBrXJ14Mol9UFAUFAQjhw5gokTJyrdwXLlypUoDJJQ9dNPP0Xfvn2xbt06PHjwAK9f67ZSjxL7bJ42+LnmweCHiIiIyBQx+KFkJas43ENeYM+dQIw77IqvViS96HLZqdqiyyefhiI06pX60clUDRs2DHPnzmXNGH3y4BEiK9eEe958eLH7T7n4geMnEVbhcwRa2uJBrYrA7VvqgxOT+4S0/9+5cyeGDx+OBg0aaFZ9xR/y5/r16ys/+x07dsDd3Z21oHQgW1/j769X3MPVUSIiIiIyJQx+SGexr/+Hh36R2HzdH0P3OqHR4lvINjJpRZel40x80eXLbuGIek/RZX0jk1BpdX369Gl1hFJCVFQUHBwclDAgY8aMaN26Nfbt24eYmDdd2CgN/A+IGDkGAfbZ8KxdO1my9WZcFunsPojgUqXgZ2MO9y+bA3fvKo//L7LC59GjR1i/fj369euH6tWrI1OmTInCoJw5c6Jly5aYMGECDh8+rKwkoveru0Ab/EhheyIiIiIyPQx+SCfzT3slueiyTEDiiy5LW+FXsYb97v3duAmtbFGRCekvv/zCorUpSL63a9euRd26dROFAAsWLFAfQanqxlU8KFkYvgXzA6dOqoMqyW5370Zw3DlfKxt4ffUl8Pjxm3NJJLV/pMi6bLP88ccflWLr/yweXaRIEXTo0AGzZs3CmTNn8Pw5W5YnVH/hLc19+KIrgx8iIiIiU8Tgh3Qy6oBLomAn4ZFrzHk0X3oHI+MeI0WXnQOjjHaLhtQikZUJMgGV7kXHjx9Xz1BKcXJywpgxY1CgQAEGP2khNhZe37WGZ7ZMwJAhb1/NI/V51q2DTw5HBFpaILhTeyCZOrZJCCir7GbOnIlvvvkGhQsXThQESTBUvnx5dOvWDUuXLsX169dNenVYw0Xa4Oe8S5g6SkRERESmhMEP6WT0wcTBzx9H06bosj6IjZsIS6tqS0tLZeIp279evHihnqWUIluD3tYNavPmzTh06JDyc6Hk9j9g1y48zWaJ4CplgEeP1PG3eB33/V+zCiGFCsHHOgvcO3QE/P3Vk8krMDBQ+Zn//vvvaNGiBXLkyJEoDJJrs0aNGujfvz82bNiAx48fm0zx6MaLb2vu02edGfwQERERmSIGP6STsYdcNZOJ6cc91FHTJpPJ2rVro169euxIlEbk+54nTx5lsi//lcLAUjeGkom/P4IaN4a/nTWwcGHcN1wdf5eXrxA9ew688hZAgG0WRHfvrrSAT2mywtDNzQ3bt2/Hb7/9plyTNjY2icIge3t7NGzYECNGjMCuXbvg5eWlPtu4NFmiDX5OO4Wqo0RERERkShj8kE7GH9YGP1OPuaujJKtMglNhYkvvJkGPdIqKD4DkqFmzptIunj7C/+J+vxctwOPsWRFWty7woR3Wnj3Dq2mT4JcrK4Lt7eA3dGCqhD//JNfm/fv3lVpRffr0wSeffKIUC08YBuXOnRutWrXCH3/8gaNHjyIkJER9tuFqtlQb/Jx6yuCHiIiIyBQx+CGdTDjipplMTP6bwc9/cXZ2Vv+PUotM9KXzkxT+le5Qss2HPsKjRwj8pBJcsmcFjhxRBz9QeDhejBwBHwcbeGa3RtT40cpYWouOjsaVK1ewaNEi/PDDDyhTpgzSp0+fKAwqVqwYOnXqhDlz5uD8+fNKlzlD8sWyO5p79Yknhh9kEREREVHSMfghnUz8Sxv8TDrqpo7S29y+fVtZWdClSxeuBkojsnLDz89P/ZOWdIySYtH0H169QtSgX+FjZ43wb79R/pxkkZEIGzYYAQ654JslL6J/HwfoYdHl8PBwnDx5EtOmTUO7du1QsGDBREFQhgwZUKlSJfTo0QPLly/HrVu34r4dOnw/UknL5drg59hjBj9EREREpojBD+lEwp74yYSEQPRurq6uaNCggTJpzJUrF/bs2aOeobQmNZnk51KnTh2sXr2aLfnf5dRJeBXJB/9iBYFLl9RBHUSE40WXPgi2z4Mn+bPi5cxJsuxGPam//P39ceDAAYwdOxbNmzdHtmzZEoVBmTNnVn6XBgwYoBQXf/r0qd50MvxyxV3NvfroIwbPRERERKaIwQ/pZMrf7prJxO9HXNVReheZBC5btgy2trbKRLFjx45KJyJKW/v370ebNm00tV6sra2VLT/SLpxUMf/D8/bt4W9niVdSn+djV7f4+SP6p+7wzmYFn1z2b4pExxpWMXS5nl1cXLBt2zYMHjwYn3/+ufK7kzAMcnBwQJMmTTBq1Cjs3bsXPj4+6rNTV6uV2uDnr4cMfoiIiIhMEYMf0sm0Y9rgZ9xhBj8fyt3dXZkMysSwQoUKerMqwNRJCDdv3jxlC4/8bJo1a6aeIezcC9/cWeFZvTzw5Ik6+JFcXBDeug1CrK3gU6QAsHkLEK1/276SQmpK3b17V1k51rt3b1StWhXm5uaJwqB8+fKhdevWmDx5Mo4dO4awsJRvr9561T3NvfrwAwY/RERERKaIwQ/pRFq4x08mpLU7fTgJe1atWoV9+/apI6RPbt68ievXr6t/0pIaQZGRkeqfTERoGMJq1oeroyUils5XOnslGxcXhLVuCS+rTHAuVBbYsUsuDvWkcXjx4gUuXbqE+fPn4/vvv0fJkiUTBUFyyFjnzp2Vx1y8eFF5TnJqu1ob/By8H6SOEhEREZEpYfBDOpl5Qhv8jD7ooo4SGa+uXbsqW/W6d++Oc+fOGf9qrdi4Y9Yi+Fpaw/3LukDwB7ZvTwoXF3h+Xhc+NjngXbYCsHevesJ4ySqf48ePY8qUKco2Q1kFlDAIklVCVapUQa9evZSA+M6dO8pqIl21X3Nfc6/ef4/BDxEREZEpYvBDOpl90lMzmRh5gMFPcnj27Jky2fP19VVHSJ9Iy++yZctqJuglSpRQtux4enqqjzAyT54itEJ1eGexBg4fVAdTwMOH8KhXB972lvCqUAr46y/1hOmQ+j9SB2j06NFo2rSpUh8oYRgk9YOkALnUE9q6dSucnZ0/OHj8Zq02+Nl3l3XFiIiIiEwRgx/SydxT2uBn+H5ndZQ+xpIlS5RJnkz61q9fz/o/ekh+JleuXEGfPn2QJUsW5eclW3WM7mcVHY2g34bBz8oasV2+lT1L6okUcv48Aj+rCh87G7hXqwFcvBA3aLq///L75OTkpHQIGzhwoNIxTDqHJQyDpLOY1KKSTmNSpFy2Ir7Nt+u0wc+eOwx+iIiIiEwRgx/SybzT2uBn2D4GP8lBJntbtmzRtIpu2bIlvLy81LOkb6QWi6y+kOOfYmJiDDsMOn0aTiWLwqdwbuDWDXUwhZ08Ce8q1eBhawenerWBO3fUEyRevXqFW7duYcWKFejZs6dSiDxDhgyJwqACBQqgbdu2mDZtGk6cOIHw8HB0Wv9Ac6/edTsFtusRERERkd5j8EM6WXDGSzOZGLrXSR2l5CDv3Ldr106ZyNnb22PNmjXqGTIUsgWsTJkymDFjhuFt3Xv+HAHf/AgP27yIHToYeJ1Krdbl7zl8CHdKlYCnXQ4ENG4B3LunnqS3kWLj58+fx9y5c/Hdd9+hePHiiYKg9OnTwy5PEaQr3RTp6v+KKRuOIDo6Wn02EREREZkKBj+kk0VntcHP4D0MflLC9u3b4ejoiKFDh6ojZCgmTpwIOzs7ZfItqzJk9dbOnTvx8uVL9RF67M8/EZClCAIrNQVc06Bj34kT8M5XEoFWOeHXvEnafA4GLCQkBEePHsWkSZPQqlUrZM7imCgMypgxI6pVq6ZsV5RQ+f79+x9VPJqIiIiI9B+DH9LJknPemuBn4O6n6iglt8DAQERFRal/IkMiqzE2btyIRo0aKSsvZNJdsGBBZcuO3goOxuMateCaPSeweK06mMokhNi4CS5FSsIvSzYEfdFC6f5Fuvlh00Ok674d6VpOxNc//ar8PsbXp4o/bGxsUK9ePSVk/vPPP+Hm5mZ8dauIiIiITBiDH9LJ0vPa4GfALgY/qUkmZNIFiAyHTKQnTJiAkSNHqiN66HUsMHsJvOxyIbBVCyAoDVt/y7avtWvhW7gUAqys8fyH9mn7+RiwHzc/1Nyrt1z3V8Zex31/Hz9+rASTv/76K2rWrAlLS8tEYZCsNmzRogXGjx+PQ4cOKSE0ERERERkmBj+kk+UXfDSTif47GfykJun4Je2dFy5cqEzgyLDt3r0brVu3xr59+5Si0Gnm4UN4F68G7xyFgb271cE0JJ3EZs+FX+7sCMxiicCePYAAFidOqm5bHmnu1Zuuvb3zl5DfvRs3bmDZsmXo1q0bKlSoADMzs0RhUKFChfDNN98otatOnz6NiIgI9dlEREREpM8Y/JBOVl7UBj+/7HiijlJqOHLkCPLmzatMxOrWrau0fSbDNWLECM3EOmfOnBg8eDDupXZRYwmcho2Fm11OhP34k+xTU0+kMamJNGca3B2yIMAuF8KHDwXCw9WT9CG6b9UGPxuvvjv4eZvnz5/j7NmzmD17Nr799lsULVpU87sqhwRD5cqVw48//ojFixfj2rVrhlHHioiIiMjEMPghnay+5KuZTPTZzuAntYWGhuKnn35SJl+ZM2fGnDlzWKDVgEl4N3bsWKUdd/ykWgrwysQ7VZw4B5f8FXA3T07g4QN1UE+8eIHYKVPhbZsVnlmtEDGiv9J5jD5Mz22PNffq9VeSFvy8TVBQkBI+SwHzL7/8Ugkr439n5ciUKROqV6+OX375RVmd+PDhQ65MJCIiIkpjDH5IJ2sua4Ofn/98rI5SapMJWP78+ZUJV//+cRNiMmgyQT527JjSmrtBgwbqaAoLDYVXx07wsHUExo+L+yTUcX0SFYXIYYMQ4GgPz5y2CJo8Sn9WJem53nH35/h79dq4+3Zyk5pjHh4eSte6YcOGKb+38R3t4g/5s4zLeXmcPJ7Fo4mIiIhSD4Mf0sm6K9rgp9c2Bj9pKTw8HH379sWTJ1x5ZUzeNjGWLWDDhw/Ho0eP1JFksG4VnPLYIrhyacDNQx3UQyEheNH/Z/hmt8GT/A6ImDMd0OcOaXpCVmTG36tlpWZqkABTVvrIih9Z+SMrgCwsLBKFQbly5VJWDEnRcwmwg4OD1WcTERERUXJj8EM62XDVTzOZ6LE1GSehRPROo0aN0kycpRPT8uXLERYWpp7VQUAAvOt+DudcDsDCueqgHvPzQ0iXH+BtlxU+uXIBa1YC0awp8z59d2iDn1WX0q4boNT+kRpAUgtIagJJbaD06dMnCoOkhpDUEpKaQlJbKJKruoiIiIiSBYMf0ol0h4mfTEjXGNI/9+/fx5QpU/CKqyKMhtRxOnz4MDp06KDUUpHJstR4kq1hurTbfj1lOtyyOMDry+bKli+DIJ29Ov6ACJtMcM+TF9iyA+CuoXfqt1Mb/Ky4kHbBz9tIVzDpDiZdwqRbmHQNSxgEZciQQekuJl3GpNuYdB1L0853RERERAaKwQ/pZPN1f81k4qfNDH70kYQDMnmqWrUq7ty5o46SsQgJCcGiRYvwySefKAV2kxzwPXkCz1wF4Z+vIPDXEXXQQHh44OUXXyDEygFOhUsD6zcAr1nc/G1+3fVUc69edt5bHdVfAQEBOHToEMaPH48WLVrA0dExURhkaWmprHb79ddfsXHjRjx+/JjFo4mIiIj+A4Mf0snWG9rgp+umh+oo6RPZJjFgwABlO0XGjBnx+++/891yI/W21T4SDK1evVpZVfEv0S8Q3acPfG0yI/znXkCEAW6p8fLCs8Yt4G9nA68yRYE9e9QTlNDA3drgZ8k5/Q9+/klqXbm5ueHPP//E0KFDUa9ePdjY2CQKg7JkyYJGjRph5MiR2L17N7y9De/rJCIiIkpJDH5IJ3/eDNBMJrpsZPCjz86dO4cSJUooE6SKFSvi5s2b6hkyZrIaSH7m1tbW6Nq1K06dOqUtGH3uEtxy5EdgmcLA1atvxgxR3O9ycMPa8LM1R2C5isDfx9UTFG/QbifNvXqxAQY/byNbHmUr65o1a9CnTx9Uq1ZNCbcThkF58uRBq1atMGnSJBw9elQJQomIiIhMFYMf0smOW9rgp/OGB+oo6auoqCgMGTIEZmZm2L59uzpKxkxWAc2dOxeVKlXSTIaLFCmCCSNH4nbrb+FlnwsxE8Yafmes69cQWL0aAi1zwK9y/bg/X1dPkBiyVxv8LDzjpY4an+joaFy5cgULFy7EDz/8gNKlS/+reHTx4sWVelhyXZw/f165LxIRERGZAgY/pJNdt7XBT6f1DH4MRbK2ASeDIau8pCZK9uzZYW5mhouOjnCqWhUIClIfYeAuXoR79c/gnjkbvGrUAG7dUk/Qb/ucNffq+aeNN/h5m/DwcJw4cQLTpk1Du3btUKBAgURBkLm5uRKM9uzZEytWrMDt27dZDJ+IiIiMEoMf0snuO4GayUTHdffVUTJEUgtI3i0n4/fy8WPsqFAJno658WrdGnX0zdaZCxcuaLeCGaKzZ+FdugxCMlvBo1Ed4NYN9YRpG75fG/zMPeWpjpouPz8/7N+/H2PHjkWzZs2QLVu2RGGQlZUVPvvsMwwcOBCbN2+Gk5OTYV8XRERERHEY/JBO9t7VBj8d1jL4MWT9+vVTtkVcunRJHSGjFDd5jZ34B7wdcuJZk68TtW+XGigy6ZVaUJMnT4aXlwGuDJHOTkeOIKxkGbjYOMClddzX6PxUPWm6RiQIfuYw+PkXCXVcXFywdetWDB48GHXq1FHCn4RhUNasWdG0aVOMHj0a+/btg6+vr/psIiIiIsPA4Id0sv9ekGYy0X4Ngx9DJZMeaZssWx6k/o/UAWLdCyN17x5cypSHc5GSwOHD6uAbsgVQiuRKdySZ6MrvgqyGkMnwixcv1EcZAFmZsXEjvIpUgJ91Xnh+0Upp/W7KRh1w0dyrZ5007e/Fh5LtXnfu3MGqVavQu3dvVKlSRblHJgyD8uXLhzZt2mDKlCk4fvw4wsLC1GcTERER6R8GP6STg/e1wU/b1ffUUTJUUgMmvgiwrPqQTmBkRGKB6M5d4Gtvj7CefYB3hDkS8kjYI6GPhD/y+2BwK8Fk5c+6TQjMWQQh1jkQ/F0XxM3K1ZOmZ8whbfAz4ziDH13JtXHx4kXMnz8fnTt3RsmSJRMFQXKUKlUK33//vfIYuW4MKjQlIiIio8bgh3Ry6IE2+GmzisGPMYiJicGECROUtsjSDWf37t3qGTJ4J8/BK1tu+JUqAty+rQ6+n2z3kpbwb6tvovetsWNjgNUr4JetAAKsc8K7SwfA3189aVrGHXbV3KunHXNXRyk5hIaG4tixY8qqn9atWyurgBIGQXIvrVq1qrJqaPXq1coqIqmnRURERJTaGPyQTo48DNZMJr5eeVcdJWMgk5P27dsrRZ/JCISEIKhFO7ha2wNTJwKvYtQTupF6KLLtpWXLlti5cydevnypntEzL6PxaulyPM6RF55ZbBHZb6DxdDFLgvEJgp+pDH5SnI+PD/bu3avUA2rSpAkcHBwShUFSP0jqCA0aNEhZXefs7PzWcJWIiIgoOTH4IZ0cfaQNfr5aweCHSC/JfHLtOvhkywOfWrUBb+834x/h1q1baNiwobIqTCay0hWpf//+ynZBvRMVhefTJsM3ew742hfBy8GjgWfP1JOmYcIRN829evLfDH5Sm4Q6T58+VTqEDRgwALVr10bmzJkThUFyDcn2yjFjxigdx6TzGBEREVFyYvBDOjn2OEQzmWi5/I46SsZM3sWWbQ1kQJyc4fPpZ/B0yAqsX/+m+HEycXNzU7YGFilSRDOB3bNnj3pWj0RG4uWQ3+DlkB/OeYogbMw4IDpaPWn8/jiqDX7k/yntSfFoCVBXrFiBHj16KPXVMmTIkCgMKlCgANq2bYtp06bhxIkTCA8PV59NRERElHQMfkgnxxMEPy0Y/Bg9qf8TX7+iZ8+enIQYhP/hxR+T4WOXHeENG7yzoPPHev36NU6fPq1MYN+2PVAvtrE8e4bXgwfA1d4enlkKAotXyy+1etK4ySqf+Hu1rP4h/STXzvnz5zF37lx06tQJxYsXTxQEyQq70qVLo0uXLli4cCEuX76MaBMKMImIiOjjMPghnZx8GqqZTDRfyuDHFDx+/FjZpiCTkPz58+PIkSPqGdJLN67BuVxRuOXJDfz1tzqYumQyK13iBg8ejHv30rgIfHAwXvzSB0G2WeFtnQNYsBjQ1/pEyUjq+sTfq38/4qqOkiGQIupHjx7FH3/8gVatWiF37tyJwiApHl2tWjX06dMHa9asUa4xFo8mIiKit2HwQzo57aQNfpou+bAuQWT4ZFIh70jH16j48ccflc42pGdeAa+7dIZn1oyI+qWX0s49LUihcNmyEj9R/eSTT5ROYWnWFSwwENE9uyLA3gouhYvg9dq1qRv+PHPDtWP7sH3TWqxeuwk7Dp/HI/+UXbUhnbzi79XS4YsMm3Tbk46LI0aMQKNGjWBvb6+5vuSwsbFB3bp1MXToUPz555/KlkwWjyYiIiIGP6STs85hmslE48UMfkyNk5OTMrnIlCkTHj58qI6S3th/ED658sKtQlng+nV1MG3IVjCpDdW5c2dNYGhhYYFt27apj0hl3t7w+LYtvLJawb9gXmDzZvkk1ZMp49njw5jzczOUdbSEpX0eFClWEI5WZsr3wsy+BBr3nodjbikTAM047qG5V4855KKOkrGQ60tWY27YsEEpsl6zZk3lvpwwDHJ0dESLFi0wfvx4HDx4EAEBAeqziYiIyFQw+CGdnEsQ/DRafEsdJVMiEw697ORk6iIjEdGyFTxsHBA5aZos01JPpL2wsDAsX74ctWrVUtpYpxl3dwR82RBhthkQUrIIcHB/sha+1orEw20D8VlOc1iXboMJ267CWy2DFO17CSt+rABrM5mcm8GqVEcsuZ78HcdmndQGP6MOMPgxBVKT7caNG1i6dCm6deuG8uXLw8zsTdAYfxQqVAjffPMNZsyYodToioiIUJ9NRERExojBD+nkgqs2+GmwiMEPaT1//lz9P0p1/wNeb1oHDxsbeH/6GeBmOO27ZTvK999/rwRDEhCluMeP4d+8LsJtM8A3bhKMi5fiBpMz/InC/dWdUcrKDOZFOmD53X8Xvo71XItvc8RPyM1g99lEXIxSTyaTOac8NffqkQx+TJbcl8+cOYNZs2bh22+/TdSNTw4JhsqWLats3128eDGuXbuGlyZQA4uIiMhUMPghnVxyC9dMJuot4KoPekNqAMlWA5lYBAYGqqOUalxd4fppGXg52AM7dqqDhkFWAMkWMJmEypaw7777TtkiJivLUsyjOwiu/xlCbW3gWr4McPaseuLjRV6ZhkbZzJDOLCe+XvIYb+0hFn0DU+paaSfgVnUx5WbybvmamyD4Gb4/DVdZkd6Re/Thw4cxYcIEtGzZEjlz5tT+LsYdsmWsevXq+OWXX7B+/XplW2+KXo9ERESUYhj8kE6uuGuDn8/nM/ihN6TQc9OmTZVJg9SV2L59u3qGUlx0NMJ+/wMu9hYI7vA1YIAt94ODg5Xiz9KpKH7yKcWhU+z3SBb4XL8J51q14GefAaE16wEXLr459zFiXbC6Qx6Yx33+5vl+xDZ/dfxfonB1ZlPkMpev1QxWZX7Bnnc+VjfzT3tp7tW/7WPwQ+8mq+48PDywY8cODBs2DPXr14etra3mWpTDzs4ODRo0UM7v3LlTeTyLRxMREek/Bj+kk6vuzzSTiToMfigBmQSsXr1a022mXbt28PdP5tks/dvVa3hQrgq88+QDTp9SBw3X3bt3MWTIEGUVwl9//aWOpgCZs144D8/KpeGfORu8mzQH7t19c05HMQ/moqntmy1ctl8thst7yyxFwO3KEezZcxQ3vZO/wPPCM9rgZ8heJ3WU6MPICp8HDx5g3bp16Nu3Lz799FPNyrz4I1euXPjyyy+VlUNHjhxRAlwiIiLSLwx+SCfXPbTBT+15N9RRIi1pOyydZGRikC1bNuWdYUoh0dHw6NkLTlmy4tVPvYBXr9QThk8K1b5te8n8+fNx6tSp5FttcOgIPIsXg7e9A7wbNZe9Z+qJpIqF96r2cFCKNpsjX6/dSMuyuYvPeWvu1YN2M/ihjye1f65evarUAuratatSGyh9+vSJwqCiRYsqW35nz56Ns2fPIjLy3zWuiIiIKPUw+CGd3PSK0Ewmas5h8ENvJ5NyaTMsBUO5HSAFHdiDm4XzwKlCJeDxU3XQeAUFBcHc3FyZYEqRWllp4Obmpp7Vkfx6HjoE51Kl4WOVHWHNvgZ0ansdhTMjq8BSmQCbo2CffWka/CxJEPwM3G38vxuUNp49e6YEsdIlrH379krXsIRBUIYMGVChQgWly9iyZcuUrmMS6hIREVHqYPBDOrntrQ1+qs++ro4SUaoLDoFz/c/glN0WmDZb9maoJ4zbzZs30b9/f2U1mUwsZcVBw4YNla0mOpOVUn/+CadS5eBvkx3BX7cFvL3Vkx8qAgd+KarU95G6PQ4d1yNIPZMWlp3XBj+/7mLwQ6knICAABw8exLhx4/DFF18odd8ShkGWlpZKM4Bff/0VGzduxOPHj1k8moiIKIUw+CGd3EkQ/HzK4Id0IHWAPD091T+RTmQV1epVeJonL/zr1AfcDad9e3KRbSdSZFZqjMiqgoULF6pndCSrEDZshkvegvDMaoXA3j8CPkkJfyJwqH9xNfiJm9xWHY2zydyiPSlWXPDR3Kv77XyijhKlPln16erqij///FOp31W3bl1YW1snCoOyZMmCRo0aYeTIkdi9eze8kxy8EhER0dsw+CGd3PN5rplMVJt1TR0l+jDSFlhWaEiHmJUrV3IbmK483eFUpQycsuUGNm1/EwSZMF9fX2XLyT+dOHFCqTn1waKjgcWL4FUgOzxy2MF3YB8gJEQ9+V+icOn3mupWr7jDqg4mXf/Aos1BZ7Fl1z0kZ4nnVZe0wU/fHQx+SL/Exsbi3r17WLNmDX7++Welo1/GjBkThUF58uRBq1atMGnSJBw9ejTuUvzQa5GIiIjiMfghnTzw0wY/VWYy+KGkk5bBOXLkUF7YN2nSBO4muFrlo7yOQeik0fCzt0Ro228Msn17anj16pXSdcjMzAxNmzbF1q1b8eLFC/Xse8RNSF9MnAjvLFnh52iDsMG/vgmEPkDQ5i7IoRR3lsMCFYccRah67t2icXful2g6+XqyBj+rL/lq7tV9tjP4If0n1+fly5exYMECdOnSBaVLl/5X8ejixYvju+++w9y5c3H+/HlERaXhsjoiIiIDwOCHdPLIP1Izmag0/ao6SpQ0gYGB6NSpk/JC3sbGBkuXLuXqnw914TycSuaBe7YsiJv5qIP0TxL8SNjTrFkzJfyR3zUHBwf06dNHKTD7Xi9fAn9MRJCtHbwdssB/0hjEzTDVk+8W67IMrbO++bvkMMvaAJMuvD/6iXm8Gh2L18aEy8kZ+wBrL2uDn95/PlZHiQxLeHi4snJv6tSpaNu2LfLnz6+5vuSQYu+VKlVCz549sWLFCty+fVu59omIiOgNBj+kk8cJgp+KDH7oI+3Zs0dZlSGdYJ4/f66O0jtFvkBs1x4ItLJC8ICfgVfsjvMhZLvX5MmTUaJECWWyKEVl/5OspBr7B7yzF4Zrjux4PXfuf4c/sZ7Y3LWgps6PFHm2rtADG+6/vb9XtOtBjGqQCzm+XISHyfyjXH/FT3Ov7rmNwQ8ZD9nauW/fPowZM0YJdrNmzaoJguSwirs/fvbZZxg4cCC2bNkCJycnvrFAREQmi8EP6eRpQJRmMlF+GoMf+nhSt0HepaUPsG073HMWgUfJsoAzOzUllUz+ZHuIs7OzOqIlbeGlYHQiwcEI6j8YAXbZ4VqwCDB/vuxHUU++XdStefgip3bVj4Q/Fvk+R48pG3D02iO4+XjC6cZxbJ7RF42LWsHMvjbGnU3+7Xobr2qDn+5bH6mjRMZHrmu5piXkGTRokBL6SPiTMAyScEi2fI4ePVoJjSQ8IiIiMgUMfkgnzoHa4Kfs1CvqKFHy+9ck3NQFBsJPaiJlzQtMm6kOUnKpXbu20iJeWsVLy3iN0FBE/9QLfrZ28CpWDFi//k0HsHeKwZMtvVDJLmH48/bDzKII2i68jn+Xpf54m65pg59uWxj8kGmR7V537txRmgj06tULlStXVraFJbz+ZNtYmzZtMGXKFBw/fhxhYWHqs4mIiIwHgx/SiWvwC81kovRkBj+UMqQGkGz/mj17ttL9heLMXwT3LHbwqFFL9i6pg5QcXr9+jQkTJqBw4cKaSWHFihWVArLyuwh/f7zo0A6B9g64n68gsG+H+sx3iYbz3lFoJit6Ekw0tYcZzHN9hn7rb35A8WfdbLnur7lX/7j5oTpKZLqkEPSFCxcwb948dO7cWbP1M+FRqlQpfP/990qB6UuXLn1YQXgiIiI9xuCHdOKWIPgpNfmyOkqUvK5fv64p4lmrVi08emTiKxZ8fOFeuCx8c+cC/tymDlJykwDo1KlT+OGHHzRbRVq2bPnmpK8v/L5uA3eb7HhUuCiw74A84c25d4jxuYiNk35B2zrlUDinHawd8qBE9Zb4afQKnHSJVB+VMrbd0AY/P2xi8EP0NqGhofj777+VGmBff/018ubNmygIkhbzVatWRe/evbF69WrcvXuXb0YQEZFBYfBDOvEI0QY/JSYx+KGUI91cZIm+vPjOlCkTpk+fbpovuF++RMSvA+BhkwP+nbuwfXsqefbsmTLRO3nypDoS5+lThLZqh5VmmfGjfXY8WLlKPaF/tt8M0Nyrv9/4QB0lov/i7e2tNB4YNWoUGjdujCxZsiQKg6ytrfH5559j8ODB2LZtG1xcXFg8moiI9BaDH9KJV2i0ZjJR7I9L6ihRypHaC7LtS15w16lTR1mVYVIuXUJQoQJ4WrgQcOaMOkip7sVLwM8PWLkSrSy0tULqV66MHX/+qXctpHfc0gY/nTcw+CHSlYQ6T548waZNm5SOgLIK1dLSUnMPkCN79uxo3rw5xo0bhwMHDsDf3199NhERUdpi8EM68QnTBj9FJjL4odQRERGBfv36KcvxTcqzZwju8gN87azhNaDPf3aUomQkQU7c9x93HiB28z68GDwavo0bw6dkPgTZZMCBDOnQPENGTQ0f2SLy+++/w8fHR/0AaWvXbW3w02k9gx+i5BQTE6MUgV++fDm6d++u1ATLkCFDojCoYMGCaNeunbJaVVYOyipCIiKi1Mbgh3TiG/5SM5koPIHBD1GK2rUH/g754F+0FODpqQ5SipFuXVJPatcuYMQIvGjYAOGFCyPYxh7+mezgb2kDHxtrPMhqDe86NeMeMxqeK1ZgzJAhyJkzpzLZk85BHTp0wJkzZ9J0+8eeO4Gae/W36+6ro0SUUiIjI3Hu3DmlKUHHjh1RrFixREFQ+vTpUaZMGXTt2hWLFi3ClStXEB0drT6biIgoZTD4IZ34P9MGPwV/v6iOEqUN2fYl7Xrl3Vej4+kJnzr14Ju9AKIXLFAHKVlFRQEPHwIH9iJi3Aj4tGyOwNLlEeiQHYFWlgjMbB733wwIymaN0Pr1ETF4ILBls1LoWVkRlMDLly+xZcsWfPbZZ5qJXvny5bFkyRJlxVpq23dXG/x8s5bBD1FaCA4Oxl9//YWJEyfiq6++Qq5cuRKFQRYWFvjkk0/Qt29frF27Fg8ePDC97cxERJSiGPyQTgIjYjSTifzjGfxQ2pLiu/LiWZbZy7J7ozJjBjwd88D38ybS314dpI8iWy2cnYEjR4DfJwBtOuF5herwy+OAAMdMCLDJBG8ra7jnyw+PunXg2etHYN0y4P59ICgIeP1hxcVv376tFCaXIrDy+2lnZ6dsVXwoIVMqOXAvSHOvbr+GwQ+RPpBVgJ6enti1axeGDx+Ohg0bKveHhGGQra0t6tevj99++w3bt2+Hu7s7i0cTEZHOGPyQToKfa4OfvOMuqKNEaSMqKkp5cWxmZqZssRkzZoyy8sLgPX6MB5UrwCVnTmD9BnWQkkQmSs+fS4seQDpzzZoLfN8D4ZVrIjhvAYTY28Mvszm87CzgkS8X3CtVREC7NsD8ecDFi4DU6vnId97DwsIwb948lCxZUjOpk4nezp07U7wY9MH72uCn7ep76igR6RtZ4fPo0SOsX79eCYhr1KihdLJMGAblyJEDLVu2VOqIHT58GEESRBMREX0ABj+kk5BIbfCTZyyDH9IPly9fVmonyAvkcuXK4erVq+oZA/Q/IKz/L7iXMwv8f/yBBZ0/WNw3TsKU0FD5hQBWrMazPgPgVac2vAoVQICtI55nyIZosxx4ZpUfTwsUx9OvmiJs3lRpHfdm+1YKkXfrjx07htatWyshpfye5suXT9n+4ZtCf+/hB8Gae3XrVQx+iAyJvIFx/fp1ZavoTz/9pPy7Fn/viD8KFy6s1BObOXOmUlPsuQTdRERE/8Dgh3QSFvVKM5nINea8OkqU9qRI5siRI5XOKlJLwWBdvgKnrHZwLVoAOHNaHaR3ku1b128AG7Yh4pdflS1aPsULIdjOBuHpzRGSyRI+1rZ4kjMn/Jp9Afw+Ddj/lxTfUD9A6vLw8MCoUaOUd/Bl8pYxY0Z8++23OHv2bLJu5/jroTb4abXyrjpKRIZKaoWdPn1aCXok8JHgJ2EQJMGQ1BWToEgCIwmOjLL+HRERJQmDH9LJsxfa4CfHaAY/pH+uXbum1FAwSJEv4Nfxe/jY2SP2t6Hytq96gjQksLl9G9i8Bc8H9Id/g/rwK14OYda5EZXBAUEZbeBhb4PHBbMipFkdYEjc93Hn7jcrepTVU/pRK0Pe0d+8eTNq166tmbhVqFABS5cuTZZi0H8/CtHcq79aweCHyBgFBgbi0KFDyhawFi1aaALl+EO2jMnWMdlCtmHDBmVLGYtHExGZFgY/pJPn0bGayUT2UefUUSL9Fxv7YYV504ys9ti+A17Z88ClfAWlzo/Jk/mJBD1SFHn7dkSPHIaIdl8iqFxRBOdwQLC9JXxszOCeJTM8C+RDcJ16eNG3H7B5E+AU9/2T5+pHzvNet27dQs+ePWFlZaVM1qTYa//+/ZVJmq6OPdYGPy2X31FHiciYyapBKQYtRaGl/l29evWUYtEJwyB7e3ul1pgUl5Yi0/JGCYtHExEZLwY/pJPIl9rgJ9tIBj9kGC5duoTSpUsr22n0lpcXwhvWh7edPbB8lUEEFslO3omWrVsebsChg8DkSYjs1BGh5aviWfb8CLO0QYB1RnjamcMvfxY41ygH767fACuXAlcuGXz3s9DQUMydOxclSpTQTNJkgiaTs6QWgz7xRBv8fLGMwQ+RqZI3Pe7fv6+0i5e28dI+XtrIJwyDcufOrWyR/uOPP5T289KGnoiIjAODH9LJi5jXmsmEwwgGP2QYVqxYodRSSZ8+PX799Vf9K4IpIc+sufDLYokHtStKFfU348ZOvm4JewICgNOngSUL4f9TVzyq8Qn8CjgixDoDgm3SI9A6E/zss8M5bzH4ftUOWLQQOHMy7vsU8ubjGBnZivH333/j66+/1hR0zZ8/vzIp8/PzUx/1fqeehmru1c2W3lZHiYje1MS7cuUKFi1ahB9++EFpjiD/PiYMg4oVK4aOHTtizpw5OHfuHCIjTeTfJSIiI8Pgh3Ty8pU2+LEfrserJ4j+4e7du6hWrZrygrZIkSI4KS2+9cXDp/AvVw0eeWzxev9uddBY/Q+Q8OLCeWDpAkR+9x2el6+C5475EGhpjcDMlvDPnBEeWezwpGA++Lf5Es9nTAbOn0bczEP9GKZDtm1I0XJHR0fld1cCTJmMyUTsfdszzjhpg5+mSxj8ENH7PXv2TPl3cfr06WjXrh0KFiyYKAiSxgkVK1ZEjx49sHz5cty8eTPJKxGJiCj1MfghnbyK/Z9mMmE7jMEPGRZ5kTp16lSl4KW8kJ0wYYJ6Jg3FxCD0l1/hamOHgE7t5a1Y9YSxiAV8fN60WF+yFOjaHdG1ayMwfy7429vD39IGQRntEWTpCO/CpRD4VQtEj/kNOHIYCAgCoqLUj2Pa5B36TZs2oVatWpqJmEzCZAL2thVsZ53DNPfqxosZ/BBR0vn7++PAgQMYO3YsmjdvjmzZsmnuP3JkzpxZuScNGDBAuT89ffqU9YKIiPQMgx/SyevX2uDH5rcz6iiRYXnw4AFq1qyJo0ePqiNp6NRJeBQrCPdSBYHzRrB9Ut4Bjpss4PYdYN1GvBwwDBGNWyGgcCmEZsuFMCtbhFtkRmBmK3gXLIDH9erAd9hgxG7fATx8BISHqx+I3kXeae/evbsy6ZLJlxRrlS2MjxMUBD/vog1+Gi66pY4SEelOQh0XFxds27YNgwcPxueffw5ra+tEYZCDgwMaN26MUaNGYc+ePfCR4J+IiNIMgx/SifyjHz+ZsBrK4IcMl168K/nyJYLbt4OnjSWCh/YzzPbtMTFvCjJLB6qdOxH9xxgEtmkGz7Il4e+YF4EZs+F5hhwIyZwHXvmKwqlSZXh3647Y9RuAGzeAsDD1A1FSSTFoqb9RvHhxzaRLJly7d+/G2afBmnt1/YUMfogoZUjxaNlKvXr1avTu3RtVq1aFubl5ojAob968aN26NSZPnqzUL5N7FxERpQ4GP6Sz+MmE5ZDT6giRcZBOJkeOHFH/lAriJuhPrBwQULkK8OSJOmgApCCzhwdw9ChiJv+B0NZfw79iWXjkyQlPKwuEZMqE4Mw2cLWxx+PCxRDW8Xtg0TLg4kVu3UoBUgxaVq+1atVKUww6R+68SFerO9L13I16C26qjyQiSnkvXrxQumnOnz8f33//PUqWLJkoCJJDuhd27twZ8+bNi/un4aLyHCIiSn4MfkhnZgPfBD8Wgxn8kHHp1q2b8oK0a9euCEnpjlEeHvCtVgO+VoWAFdK+XY/rIsiqHldX4NjfwNSJ8PvmCzhVLQ2nPDnhbWUF/4wWcLbJhPu5rfC4XGmEftMVmDbnTV0fQ1zFZMDc3NwwYsQIZMmq1uIwywDHqs1x/vx51t4gojQTFhaG48ePY8qUKWjTpg3y5cuXKAiSVUJVqlRBr169sGrVKty5c0dZTURERB+HwQ/pzHzQm+An4yAGP2RcnJ2dUa9ePeVFaO7cubFv3z71TDJ7HYvX06cgyM4GwY3aAYFB6gk9IQWm3dyAU6eAGTMQ0rUjXBvWgHPBrAi1y4RnNuYIsMkIN4cs8C5TAQFt2iNi8h/AyWOAny9X9eiBC08Dka7pSKTLXUYzsapUqRJWrFjBtsxEpBek/s/evXsxevRoNG3aVKkPFH+/ksPKygp16tTBoEGDsHXrVuXfaAbYRERJw+CHdCaBjwQ/GQbGTQqJjIxsm1m8eDFsbGyUF56yFF22gCWrW7fgU7E4XLJkAg4eVAfTUFQs4OsLXLiA6CWLEdLvFwQ0bgLvQoUQksUOwVZmCLRJD6+sNvAvURpB9RsgZuiguM/9APD0KfCWrlKUtm54PtNsy60weJOymi2+GHSWLFmULjxPDGl7IREZPQl1nJycsHnzZgwcOBC1a9fW3LfiD+ks1qxZM4wZMwb79++Hn5+f+mwiInobBj+ks0yD3wQ/6eMOImPl6uqKRo0aKS80pQV8snkZi6B+feFvb4Hn37SOG3j9Zjw1ydYtKap88yawYTOifhsPv8ZfwK9oYQRmzYEgCzv4ZIw7bBzhk6sAfKpVRszP3YBt24BbT7iixwDc8orQBD8159xQxmT74uzZs1GsWDHNJKpJkybKO+7cUkFE+ujVq1e4deuWslqxZ8+eysrFDBkyaO5hchQoUABt27bFtGnTcOLECYSzOyQRkQaDH9JZ5qFnNBMKImMm7z7K8vIYCUqSy7HjeFSyHDwKFVRW2KQa2b716AGwZxdeDBuK4GZNEFysMIKz2CM4szmCrTIgMHNG+FjbwLdEaUT07AOs2wTcugPEcGm9obntrQ1+qs++ro6+IavapIj5V199pSkGLRMn6bgTEBCgPoqISD/JdlWpWzZ37lx06tQpUWdDOdKnT4/SpUujS5cuWLhwIS5fvhz3T2Dcv4FERCaIwQ/pzPo3bfDDvdZkinT+vX/xAqFftMBDx1wIGzkyZRf7yParhw+BfXvwbOQI+DVpDr9SleBnmwtBVg7wN8+sdN7yzJoFHhWLI7hHZ8QsXaBsQ3tTkDkNViJRsrnr81xzn/5kVuLgJyFZ2TZ8+HBkz55dmTBZWFgo2xsvXLjA+zsRGQxZ0SjdDSdNmqR0OMyTJ0+iMChjxoyoVq0afv75Z6xZswb37t3jSkciMgkMfkhnNgmCn9jXnBiQ6VmyZImyrDzJtQVWr0KYQ1a4V6sCODmpg8lElrY7uQCH/8LLCX8got03iKhUFf6O2RGU1Q4BmTMhKLM1fLLG/f3ly8K3U0dETZ8OnDsrFTaBaHbfMib3fbXBT9WZ19TRd5NWyuvXr0f16tU1E6XKlStj5cqVLAZNRAbJy8sLu3fvxsiRI5Wt2/b29onCIKnlV7duXQwdOhR//vmn0hWRgTcRGRsGP6Qzu2FnNROKmFiuCiDTI0vL5UWjFJnctGnTh71Q9PHF0zoV4GefGViyHPiY15by90VEAJ5ewPGTCJ83H149+8KjRmN45i8DX4dcCMpshXDZwmWXCV5lCuNxixZ4MXo08NeRNwWZ4yb6ZLwe+kVq7tNVPiD4SejatWv46aefYGlpqfyeSzFoKbT6VH5viIgMlGxzffz4MTZu3Ij+/fujZs2amvtc/OHo6IgvvvgC48ePx8GDB7n9lYgMHoMf0lmW4drgJ/oVgx8yPRL0yAvHrFmzKi8UpVaKtKV9p7gXm1gwF3ezZ0BAi88B3ySuFJKQSOoMhYS8qQu0fDlievWAd62acClRGM5Z7eBllQlBmWzgZeeIB/kL427tWgga8iuwc/ubLV+vXr35WGQSHvlrg59K06+qo0kj3exmzpyJokWLaiZF0nJ537593CJBREZBavjduHEDy5YtU7ofVqhQQVP7LP4oVKgQvvnmG8yYMQOnTp1ChLzxQkRkIBj8kM6yjjynmVC8iGHwQ6bL19cXrVu3Vl4YyqoIqS/wVrdvw6NIITzK5wD8dUgd/AChocD164jZvBk+fQficb0mcCpVBu52WRBmYYFQCzP42JjBwzETgqqWwsvePYD16wBp0y1hE5msJwHa4KfCNN2Cn3jyLvnhw4fRsmVLpWiq/L4XLFgQU6ZM4bvhRGR0nj9/jrNnz2LWrFn49ttvE4XfckgwVLZsWfz4449YvHixskrypVIbj4hI/zD4IZ1lSxD8RL7ku75k2mT1j3T+KlKkCNzd3dXRBKJe4nmPXvCwskdIn0HAOxuL/A8IClJCIqxbh5Bff4HbFw3wpHx+ODtaIcLKFhEZ7BFg6QinLPng+ennCOzRHa+XLwXu35c2JwBXYZDKKTBKc58uN/WKOvrxpBj0sGHDlG2OMgGSYtDff/89Ll26xNoYRGS0guL+fZZuiBMmTMCXX36JnDlzJgqDMmXKpNRI++WXX+L+CV+Hhw8fKqE5EVFaY/BDOnMcdV4zoYiI5kSTSLx611aq/Qfhmr84npYsC9y4qw7GkZAmOPhNaLN1G6KGj0ZwqzbwLVsOQdmzI8wyE0ItM8DbNiM8HW0QWqUcItq1A2bPBa5cU2oGKdu/iN7CJUgb/JRNxuAnnhSDlslNwmLQVapUwapVq1gMmoiMngTdHh4e2LlzpxKGN2jQALa2tonCIDs7O2Vczsvj5PEMyIkotTH4IZ3lHK0NfsJfsG4ImZJIeFzchnkTpuDPe+9cuqP1/DnCWreCr60dMPBXICwsbkbuCuzfh5BZE+H9Ywc4V68Cv9yFEZI5FwItssLL0h4+2XPCr3hRBDdrjNcTJwEnjslSC+A1g1b6MK7BLzT36dKTkz/4SUi2OciWh/giqQ4ODhg0aBCLQRORSZEVPrLSR0JxWfnz6aefKqsiE4ZBslJIVgzJyiFZQSQriYiIUhKDH9JZ7rEXNBOKsCgGP2T8YkMe4ejKcfixYQnYm8W9eDMvjv6H/7u44/+WL4KPoxVeOdoDAwYAP3ZEZLlSiMiRHaFWGRFknR6B1uYItLODi2MuuNX6DNGjRgMH9gMuLqzTQzpzD9EGPyUnXVZHU5ZMYKT4qWx7jJ/kNGvWDPv372cxaCIySVL7R8JxqQUkAbnUBoqvlRZ/SA0hqSUkNYWktpDUGCIiSi4MfkhneRIEPyGR3GpCRiziBtYPaYdP8lrCLMGLtA8Kfvz8MLtgAdROnw6nM6ZDgIU5QiwzI9jCAsFWmeGVNSt869TG88G/Aju2AZ6e6hOJPp5naLTmPl38j9QJfuLJu96HDh1CixYtNBMc6Yozbdo0BAYGqo8iIjJNz549U7qDSVAu3cLk/qh5fRF3SPFo6S4mXcak25h0HZPuY0REumDwQzrLN04b/AQ95z9EZMRiPXD9zFU8dXuAvUNqwFpW+3xI8BMbixe/j0WfjJk0L+RaWWbG1Wq14f/LIERu2AQ8fRL36i/uY3BRD6UA7zBt8FPsj0vqaOpzdnbGb7/9pikGLQVQu3TpgsuXUzeMIiLSZ9Ih8eDBgxg/fjy++OILODo6al4/yCFbaWvWrIn+/ftj48aNePz4MYtHf4hYf9w5ewOeXHRKJozBD+mswPiLmglFQATbV5JpiL48AbWsPjD4efAE96vWQfAn9XCu+VeoX7z4m0mvhQWGx02Cw8PD1QcSpQzf8Jea+3SRiWkX/MSLiorC2rVr8cknn2gmMtWqVcPq1auVc0REpCVFoKWL4p9//omhQ4eibt26sLGx0dw/5ciSJQsaNWqEkSNHYvfu3fD29lafTfGir03G5/aVMOzEf2/PJzJWDH5IZ4V+1wY//s8Y/JBpiHVehJa2Hxb8hD1+Cpy/CHh5KXV65AWc1DkpVaqU8nx5J2/RokXv7gRG9JH84u7N8fdpuWfrkytXrqBr167K6h+5HrJmzYohQ4bAyclJfQQREf2T1Eq7d+8e1qxZgz59+ijhecaMGTVBkBx58uRBq1atMGnSJBw9ehQhISHqs01RKI4MLAuLdOYo0n07/NRRIlPD4Id0VnjCJc2EQt5VJjIFsd4r0eYDg593kT36UuAxfgm3BEESCLG9KyU3WY0Zf5+WVZr6SIpBT58+HYULF1auB6kH1Lx5cxw4cIDFoImIPkB0dLSydXbhwoXKNtrSpUv/q3h08eLF8d1332Hu3Lk4f/68yayyjPXcgM75zJXvgZnj11j6lOUpyDQx+CGdFZ2oDX6kjgSRSfBdhfZ2Hxf8xAsLC8OIESM0Kx7q16+vFG8kSi5Sfy3+Pp1fT4OfeBLySNgjdS3iJywSBkkoxFbHRERJI9vJT5w4oRTUb9u2LQoUKPDmtYt6mJubo1KlSujZsydWrFiB27dvG+EK5Bjcnd30TSdW+brNrFFn0jVw1kKmiMEP6Uw6xMRPKKRzDJFJ8FuDb5Ip+Inn7u6Ozp07Kx9TJrzybp2Hh4d6lkh30nEx/j6dd9wFdVT/yXYv2fYl27/kupBw9IcfflC2hxERkW78/PyUFcZjxoxBs2bNNAX344/MmTOjdu3aGDhwIDZv3qzciw16NXLEaYyoYpnoa7QoNwhHWGKRTBCDH9JZyUna4Mcj5IU6SmTkUiD4iXf16lV8/vnnyseWzh2jRo1S2r0S6So06pXmPp17rOEEP/FkK4LUsZAaFvEv2qUwtIyxGDQR0ceRUEe6Lm7duhWDBg1CnTp1YGVlpbnfyiEBfNOmTTF69Gjs3bsXvr6+6rP1n9/27ihibgYLCwuYxX9N5vnxw2ZvcCMxmRoGP6SzUpO1wY9bMIMfMhHvDX6i4HPnFA5sW4/1W3bj7+seiFTPfCh5EbZnzx6UKFFC+Tty5MiBpUuXsgA06ST8hTb4yTn6vDpqmKR+haz6SVgMWrrcuLi4qI8gIqKPJa837ty5g1WrVqFXr16oUqWKsi1Med2jHvny5UObNm0wZcoUHD9+XNm6rndinmBxq2wws6qOoZN7orh5/OdvBocWC/CIpX7IxDD4IZ2VmXJFM6FwCeI7r2Qi3hH8hN/ejBFtKsLR3Ezzwkj2khf4rBtmH3VBUq8QKQC9YMECzTLsMmXK4ODBgywATUkSER2ruU87jjLs4CdeYGCgUrOiUKFCyrUh2yOlLpBcH69fv1YfRUREyUVWWF68eBHz5s1TtqbHvzmV8JBGFd9//z3mz5+PS5cu4cWLtH1TOOrSBNSyehPyPAw/g1FVtVu+zKxqYPwFzl3ItDD4IZ2Vm6oNfpwCefMkE/Gv4OcZPI6MQ9P85tplxP84zKzLoPOy6whVP0RShIaG4rffflOWKcvHatSoEW7duqWeJXq/yJfa4Cf7qHPqqHGQYtBSq0I6gMVfa0WKFMGMGTNYDJqIKIXJ65Njx45h8uTJaN26NfLmzau5F8shLearVq2K3r17Y/Xq1bh7924qdmoMxoF+pWCh2dYVjTszG8MuvshzOguU6ncAptzknkwPgx/SWYVpVzUTiqcBDH7IRPwj+Ok9bwa+zGeL/J+2Rd9RkzFr9jSM/aUdPsmTYD953GFmVR59d3vqvKfc1dUVHTt2VD6WrHD48ccf4eXlpZ4leruoBMFP1pHGFfwkJAVIBw8eDAcHB+UakRpZXbt2VepmERFR6vDx8VHqAEmNwiZNmiBLliya10FyWFtbK7UM5X69bds2ZatubNQzwN9P/QjJI9ZtDb7NZQaLcoPxl1rIOdZ1FTrk1K7KNs/TEevcWemHTAeDH9JZxena4Oexf1IrmRAZqITBj5kV7PPXQq/ll+D/j9cOUS6H8fsXBWCueXfJDJYVh+CoLst+EpDl05999pnyMaUA49ixYxERkXwFpsm4RL96rblPZxl+Vh01XpGRkco7y/Iuc/yL+08//RRr165N820HRESmRranP336FJs2bcKAAQNQq1YtJZiPvz/LUTJvXoT8MS7uH6zkKroTjVvTG8LWzBqfJ2rdHoDdvYrBPP7vNrND09l3wVI/ZCoY/JDOKs+4pplQPPRj8EMmItGKn3z4fsN7VvEEncLYOvYJOknkQ9etH/+ulryQ2rlzJ4oVK6Z83Fy5cmHFihWpuISaDEVMrDb4sRtm/MFPPLlGJCSVehPx2ySlXpZsm2QxaCKitCM1DG/evInly5ejR7du6FaqNFzKlASuX1cf8ZGeHcPQChYwc2yNZU6JY52IUyNQ2VJ9TRZ3WFYdiTN874xMBIMf0lnVmdrg577vc3WUyMi9o7jzu4QcHoCyFvEvMsxRuM8+JFeD9pcvX2Lu3LlKdyP5+OXKlcORI0fUs0RA7Ov/ae7TtiYU/CQUEBCAqVOnomDBgsp1IlslW7ZsiUOHDrEYNBFRWvL2hlP+4giytEJkn77AR6/MjIXPlq4oYG6OIj13wF8d1Yi+hRkNbRO8IVcMvXYHqCeJjBuDH9LZJ7OuayYU93wY/JCJSGLwg8iTGF7xzYoDOawbz8S9ZF5XHBISouyXj1/Z0LRpU6UVK9HrBMGP9W9n1FHTJCvi9u3bh2bNmmmux6JFi2LmzJkIDg5WH0VERKlCupQuWAQPu6wIsbSGa67cwO6d6kkdxTzE/BYOMLOsjBGn3vb6LBYuK9shR4Jt+DnarYQLF0yTCWDwQzr7dLY2+LnjzXWSZCKSGvwgGFu6OGreXbKsPAKnU6gWurOzM7755hvl7zEzM0P37t2VQotkumTLU/x9OvNQ0w5+EpKaE4MGDdIUHpWaE1Iw/dq1a+ojiIgoRYVHwLfN13iU3QaxdergmVVm+DT4DAgKVB+QdJHnxuBTSzPYNZ6JO9riPon570TPIuZvXsfJ6yXb+ph2810PJjIeDH5IZzXmaIOfW14MfshEJDn4icTfQ8rCQn2BYVlpBE6lcBO8CxcuoGbNmsrfJx00fv/9dzx/zlV5piq9ep/ONPi0OkLxpBj0ypUrUblyZc0koHr16li/fj2LQRMRpaSLV3Anfz48qv2pvHBBSIXScM9pi4jlS9UHJFUAdvcuBnOzPOi41u09XVSf4cSwSrBU7/nS2r3C0GPJtg2fSF8x+CGd1Zp7QxP83PDk7ZJMRJKDnyicGl5RE/xY1ZuK1HhjSVZ6/PnnnyhcuLDy9+bJk0fpdsQC0KYnw8A392kLBj/vJNfLxYsX0blzZ82WyezZs2PYsGFwdXVVH0VERMlCyqv9PgGettnxavIs2YsLLJwHr+zW8KhZPe61VtLr7sQ6r0DbHGYwz98Riy/eUba8v+u4uWswqiYo8mxe8Cds8+XrIzJuDH5IZ5/N0wY/1z0Y/JCJSHLwE4EDvxRV24eaIc+P2xCinkkN0dHRmDVrlmZLS8WKFfH333+rZ8kUmA96c5+W/9J/8/f3x5QpU1CgQAHlmpFi0F9++aVSOJ3FoImIkkFgIPwbNYNXrqLAlStvxnx88KxxU/g55MCrcZPfjH2waFyb9DmsNbV7kniYZcPXi5+wtTsZNQY/pLM6829qgp+r7gx+yEQkNfiJdcHir2w1LyzarnB9z/LjlCPFawcMGICMGTMqn0vz5s1x79499SwZM1npI/dps4EMfpJCVsft3bsXTZo00UwOihUrpgSpUlCdiIh0dPAQnHMVgEf9Zm9W+8Rbvwn+9tkRkLc4cPeuOvgBQo9gYFkLmNnVRp95K5UtvP91LBnaNFGRZ6vaE3ElhbfiE6UlBj+ks7oLtMHPZbdwdZTIyCU1+PHfhq753hQRNC/YFVu803YpsRS1bdu2rfL5SAHonj17ws/PTz1LxshyyJvgRw7SzZMnTzBw4EDNyrnMmTOjW7duuH79uvoIIiL6YH0GwyNrTsQuW6IOqMIjEPRtB/hZZ0ZUr15SiE098T6x8FjfGfnMzVHgh8344JdZwQfQr5S262o6izIYcCRUPUlkfBj8kM7qL7ylmUxcdGXwQyYiScFPDJ4sa4Oc8o6SmSOazrwOfXkz6dy5c0oRW/k6bGxsMHHiRKXQLRkfq6FnNPdqqWVDupNrZMWKFahUqZJmslCjRg1s2LBB2VZJRET/wc0NPqU+gXOpMsDbVh5fvYqnhXIgKG8O4NhxdfA9Yu5idlP7Ny3cTyZlB0IUrvzxWYLtYebI12XjhwdHRAaGwQ/prOEibfBzwTVMHSUycomCn3zotNb1nXvCox6sQqdiFkhnZoEi7Zfitp7lKhICbNmyBQULFlS+nnz58mHdunWsY2JkrH/TBj+vXzP4SQ5y7Uj3vO+++y5RMejhw4fHzWnc1EcREdG/bNgID4eC8O/6Q+JtXvFevYbX2IFwtzXHi2+7AkFB6om3izg1AlUszZC1xXw8SGKRHikI3S6HmRr8pIOZwxeYl9QPQmQgGPyQzhovvq2ZTJxzZvBDJiJ4B7oXMIdZ/IsEu/L4dvJePEi0OjgW/peWomslO5iZWaPUN/Nw4f2vW9KUtK2ePn067O3tla9JWlufOHFCPUuGznbYWc29+lUsg5/kJsWgJ02ahPz587+5J5iZ4auvvsJff/3FEJWIKJHXiG7fCU8d8gKbNqtjb+H2EE9KF4Fb1jzA8lWStqsn/iHWB1u7FoS5eWF02+arQw3FIOyRFvDqa7p06SxRdeQZ/FfbDiJDxOCHdNZkiTb4OePEPbFkOiJdjmJer/ooYhv/LpEZrPNVRcsufTBwyED0al8bBa3NYJ6jKr6bfhTuBvLmUWBgIPr16xf3AupNTaKWLVviwYMH6lkyVPbDtcHPy1cMIlLKq1evsGfPHjRu3Fi9L6RD8eLFMXv2bBaDJiISjx/DK38JOH9aA3B1VQff4n//Q/S4MXCzy4zHdesCnp7qicSirkxCXTszWJT6FYd0rDrx7MgAlLaID37SwTx/J6xz5X4vMj4MfkhnzZZqg59TTxn8kOkJf3IMayYNRJcvaqJs4Zywt7ZDjoKl8EnTzhg0bSPOeRhme4jHcS/MWrdurbwAypAhA37++WdlVQMZJocR5zT36mgGP6lCriHpohe/ik6KQXfv3h03btxQH0FEZIJWLIernTVCx45SB94jIAAeDeridu4swPSp6mAC0few+Ou8ymodu3ar4KsOJ5nfau0WfjnMLFGuzx7W+iGjw+CHdPbFsjuaycRJBj9ERuf06dOoVq2a8kLI1tYWU6ZMQVQUe50amqwjtcFP1Eu+kk1Nz58/x/Lly1GxYkXNpKJmzZrYuHEji0ETkWl58QpeTRvDzTEzcOwvdfA/7NoNp0LZ4FSqFODioQ4CUd6Xsf7X2simFmY2z/8lJh9zSfoWrdgAXF38LYomWPGjHOb50XTENtz0Z70fMh4MfkhnLZdrg5/jj7mMncgYSY2STZs2oUCBAsqLIfmvTFpZu8RwZB+lDX6eRzP4SQtSDPr8+fPo1KkTMmbMqFxLjo6OGDlyJNzd3dVHEREZsevX4JQrN4Ib1ZO95ergfwgJQXDHdvB0cEREr1/jXpT4Yc/ASshlpS3IrDnMLOBQsDxq91oPp//Ka2I9sKVfHVQoYA9zTVevfx5mMLcrgMrfzscN5vRkBBj8kM6+XHFXM5n4+xGDHyJjJit9pk6dCjs7O+UFUdWqVXHq1Cn1LOmzHKPPa+7Vz168Ukcprfj5+eGPP/5QuujJtSTFoFu1aoWjR48yUCUi4xR3b4ua8js87KzxcvoUvLWb17scPAS3/AXgmjunLEVWB4koqRj8kM5ardQGP389DFZHiciYBQQEoG/fvkrtH5m0yoT10aNH6lnSR7nGaIOfcAY/ekOKQe/evRuNGjVS311OhxIlSmDOnDkIDeX2aSIyIr6+8P6sGjyz2wI3b6qDHygyEi+6d4NfZjNEfN8RiGDPLSJdMPghnbVedU8zmTjC4IfIpDx8+BBffvmlMlmVLmC//PKL0hWM9E+esRc09+rQKAY/+kjC0/79+2tW1FlZWaFHjx64deuW+ggiIgN25Aj8HO0R/FVTQJf6Zm5uuFc2HwKy2QC7d6uDRJQUDH5IZ21Xa4OfQw+C1FEiMiUnTpxAlSpVlMmqTFqnTZuGFy9eqGdJH+Qdpw1+gp+zUKU+k2LQy5YtQ4UKFTSrgGrXrq3U2Xr58qX6KCIiAxITg5B+feDuYIsXi+apg0n1Gpg1FWEZzRHYqAng8fb27kT0bgx+SGft1miDnwP3GPwQmSqpS7J+/XpNzZKCBQti8+bNSkFbSnv5x1/U3KsDIxj8GAK5ds6ePYtvv/1WUww6R44cGDVqFDw8tJ1tiIj0npMT/KtVhFORYlLkTB3Ugacn/CuUw1N7B0ROnZq0OkFExOCHdPfN2vuaycS+u9ziQWTqIiMjMWnSJNjY2CgT1U8//VSZvFLaKvi7NvgJiOCqEUPj6+uLiRMnJioG/fXXX+Pvv/9muEpE+m/7VnjksEJAx47Ax96yFs6HZ45s8KxSXvbIqoNE9CEY/JDOvl2nDX72MvghIpV0Lerdu7cyQZWJaps2bfDkyRP1LKW2whMuae7Vfs8Y/BgqKQa9c+dONGzYULmu5ChZsiTmzZuHsLAw9VFERHokOhru37SDq2MWYNMGdfAjhIfjWcvm8M/qgFejxquDRPQhGPyQzjqtf6CZTOy+w+CHiBK7f/8+vvjiC2WCKgWgf/31VwQFcVtoaisyURv8+ITpUFST9I4UV+/Xr1+iYtA9e/bE7du31UcQEemBu3fgVqQkQqrUUjp7JQspFJ23MFwKlgSuXFIHiei/MPghnX23QRv87LwdoI4SESUmW1IqVqyoTFCzZMmCmTNnIlqXrh6kk2J/aIMfr1B+341JREQElixZgnLlymlWAX322WfYsmULi0ETUZqLmjMH7tY5gF8GxP3p9ZvBj/X8OZ516w5fKwf4tW4d95dEqSeI6H0Y/JDOvt+oDX6232TwQ0TvFhsbizVr1iBPnjzK5LRw4cLYtm0ba5SkghKTLmvu1Z4MfoySXEdnzpxBhw4dlNV1co3lzJkTo0ePhqcnu98QURqIjIRL0wbwylEIOH5cHUwmly7Cu2BBBDvmAfbvl5ugeoKI3oXBD+nsh00PNZOJPxn8ENEHkHbVEyZMgLW1tTI5rVGjBs6fP6+epZRQarI2+HEPYat9Y+fj46NcY3nz5lWusQwZMih1to4dO8aglYhSz5UrcClYAGH1vwACknme8CoGMRPHwcfWEUFffgUEB6sniOhdGPyQzn7crA1+tt7wV0eJiP6bdCrq0aOHpgB0+/bt4eTkpJ6l5FR68hXNvdo1mMGPqYiJicGOHTtQv3595RqTo1SpUpg/fz6LQRNRyvrf/xA7YhhcbOyA3yelzIocb294V6oNP5tswNLlXPVD9B8Y/JDOftr8SDOZ2HydwQ8RJd3du3fRrFkzZVKaMWNGDBo0CCEhIepZSg5lp2qDH+dA1kIwRQ8ePMAvv/wCW1tb5VqTFXfSee/OnTvqI4iIktGzZ/Cr8CmcCheVTg/qYDJ7/RphK1fCM0sO+Fb+VKreqyeI6G0Y/JDOum/VBj8br/qpo0RESffXX3+hfPnyyqTUwcEBc+bMYXHaZFJ+2lXNvdqJwY9JexY3GVu8eDHKli2rWQVUp04dbN26ldcbESWfw3/B0yYffL76WmnBnmLiPrbLZ43gYeeImFGjpaCgeoKI/onBD+ms57bHmsnEBgY/RPSRpAD0ypUrkStXLmVCWrRoUWWrCuuSfJyK07XBz5OASHWUTJlcU6dPn8Y333yjKQYt192YMWPg5eWlPoqISAfRL/C8+y/wtc4HLFsWd8NRx1PK/oNwz1cAT6pUBm7eUAeJ6J8Y/JDOev+pDX7WXfFVR4mIPo60qB43bhysrKyUCWnt2rVx6dIl9SwlVaUEwc8jfwY/lJi3tzfGjx+v6bgnxaDbtm2LEydOMHQloqTz8oBTtQq4W6Ik4OqhDqagly/h260XHubIiqAe3wPR7F5J9DYMfkhnPycIftZcZvBDRMlLJqQ//fQT0qdPr0xIpVW1i4uLepY+VJWZ1zT36gd+z9VRosSkGPT27dtRr1495XqTo3Tp0liwYAHCU3KrBhEZlw2bcD+nPdy6dABevlIHU9ipM/AtXRyuDtbA4QPqIBElxOCHdNZ3xxPNZGLVJR91lIgoed26dQuNGjVSJqIWFhYYOnQoQkND1bP0X6rN0gY/930Z/NB/u3fvHvr06QMbGxvlupP//vzzz0oxdiKid4qMRFCn73A/R1bgwD51MBW8fImYQQPhZ58Zbs0ax30e7GBJ9E8Mfkhn/XZqg5+VFxn8EFHKkS0nhw4dQpkyZZSJaLZs2ZS21LJKgd7v09nXNffquz4MfujDSTHoRYsWaa47OT7//HNs27aN1x4R/dutm/AqUQD3K5YBgoPVwVTy9Cn8PqkKL3tbYMtmdZCI4jH4IZ39uuupZjKx/AKDHyJKea9evcKyZcuQM2dOZRJavHhx7N69m7VI3qN6guDntneEOkr04eT6OnnyJNq3b6/UAJJrL3fu3EotLhaDJiKNqVPhaW+BlyMGqwOpbNkK+GaxhX/1KoCrqzpIRILBD+lsQILgZ+l5b3WUiCjlyUqE0aNHI3PmzJpVCFeuXFHPUkI159zQ3KtvejH4oY8jtbck8JHgR649CYLatWunBEMMYIlM2LNIPG/cHP55sgHHj6mDqcw/HI8aVod/Fgtg3ATgpTpORAx+SHeDdjtpJhOLzzH4IaLU5+npiR9++EFTALpTp05wc3NTz5KoPU8b/NzwfKaOEn0c2er1559/om7dusq1J0fZsmWVrWESzBKRiTl5Aq4FCsHl82pASIg6mPqe79gMV0cL+JQrD9xmXTKieAx+SGdD9mqDn0VnudSbiNLOjRs30KBBA2XymSlTJgwfPhxhYWHqWdNWZ/5Nzb36mgcn5JT8pOizFH9OWAxaikNLkWgiMg3Rw3+Ds709MHOaOpJGYmPh1+FreNpYIOrXvsqfiYjBD32E3/Y5ayYTC84w+CGitCXbTA4cOKC0oJbJZ/bs2ZXVB6ZehPbzBMHPFXe25aaUI23fFy5cqLkG5ZD28LIyiMWgiYxYxHP4Vi4P96IFgcuX1cE0dPkSfErkgUeRbMChQ+ogkWlj8EM6G5Yg+Jl32lMdJSJKW1IAesmSJXB0dFQmniVLlsTevXtNtv5IvQXa4OeSG4MfSnlyrZ04cQJt27bVFIPOkycPxo8fDx8fNoMgMjr7dsMtuwM8v+0IROpBYZ2YV3jRvw8CbK0Q3KKFpNLqCSLTxeCHdDZivzb4mXOKwQ8R6RdZfTBy5EhYWlpqVh5cv35dPWs6Giy6pblXX3Tli19KXdL1a+zYsciVK5dyHZqbmyvdwU6dOsVi0ETG4PVrhPfsBu8s2YDVa9RBPXDjBvzKV4ZTttzAtq3qIJHpYvBDOht1wEUzmZh9ksEPEeknd3d3dO7cWZl0yvH999/Dw8NDPWv8Gi3WBj/nXVj3iNLGy5cvsXXrVtSpU0dzLZYrVw6LFy9mMWgiQ+bvD/cihRBYoizw4IE6qA9eI2bufDzOVgDBtWtJO1B1nMg0MfghnY05pA1+Zp4wnUkUERmma9euaToQySogWQ1kChPOJktua+7VZ50Z/FDau3PnDnr37g1ra2vlerS1tUXfvn1x//599RFEZCier18JL5vMeNWztyS86qieCAiEe+MW8LPOAEybwkLPZNIY/JDOxh5y1Uwmph9n8ENE+k+2lki9nxIlSigTzhw5cij1gKQukLFqmiD4Oe0Uqo4SpT3pvDd//nyUKlVKswqofv362LFjB4tBExmCyBfw7votPK0tgf371UE9s307vB0s4FO6AMBOg2TCGPyQzsYf1gY/U4+5q6NERPpPJpXSfUg6f8lkU7oQSUcwY6w50nzpHc29+tRTBj+kf+S6O378ONq0aZOoGPTvv//OYtBE+uzGDdwvkBfBZcoCAQHqoJ4JD0fE118gwCYjAkcMVwo/E5kiBj+kswlH3DSTiSl/M/ghIsMjKw5+++03ZMqUSZlsNmzYEDdv3lTPGocWy7XBz4knIeookX7y9PTEmDFjkDNnTuWalGLQHTp0wJkzZ1gMmkifyPU4ZyZc7R2A339XijzrrQsX4JkvL+6WrYi4m4k6SGRaGPyQzv44qg1+JsX9PxGRoXJ1dUXHjh2ViWb69OnRtWtXpRuRMfhyxV3NvfrYYwY/ZBikGPSWLVvw2WefKdelHOXLl1e2ZkZERKiPIqI0ExqK5182g0/WnMDp0+qg/grq0xtPHXIgqv03bO9OJonBD+lMwp74ycTEvxj8EJHhu3z5smaimTlzZmXlgaFPMr9KEPwcfRSsjhIZjlu3bqFXr16wsrJSrk07Ozv069cPD/SqgxCRiTl6BL6ODnhRrQbwSs+KOr/N7ZtwKVQQEdmyAps2qYNEpoPBD+lMtnfFTyZ+P+KqjhIRGTbZTrJr1y4UK1ZMmWTKlpPly5cj1kC7gXy9Uhv8HHnI4IcMl2zNnDdvHkqWLKlZBdSgQQPs3LnTqAu0E+mj10OHwMu+KF7NmKuO6DnZifbH70qhZ78mtbjqh0wOgx/S2bRj2uBHCj0TERkT2Woik8ysWbMqE8xy5crh8OHD6lnD0WbVPc29+vADBj9k+CScPXbsGFq3bg0zMzPl+sybNy8mTJgAX19f9VFElGK8veFSrSq8C1QFrl5XBw2Alxf8G9aCUw4HYN5CdZDINDD4IZ3NOO6hmUxIa3ciImMUEhKCIUOGwMLCQplgNmnSBLdv31bP6r92a7TBz8H7QeookXHw8PDAqFGjkCNHDuX6zJgxI7799lucPXuWxaCJUsr2bXiSOzeet/4OMLTVdmtWwSVXfjgVLw+4uKiDRMaPwQ/pbOYJbfAz+iBvnERk3JydnZXuQjK5lFUG3bp1g7e3t3pWf7Vfc19zr95/j8EPGafo6Ghs2rQJtWvXVq5ROSpUqIClS5eyGDRRMov9qRecs2UDli9XRwyIvz+cGzeHp60DMGoUEBOjniAybgx+SGezT3pqJhMjDzD4ISLTcPHiRdSqVUuZWEqx2fHjx+P58+fqWf3TYa02+Nl7N1AdJTJeN2/eRI8ePRIVg+7fvz8ePXqkPoKIdObqCs98pRFQvjLw9Ik6aGBOn8KTXFkRkL8Q8PChOkhk3Bj8kM7mntIGPyP2O6ujRETGT7aQbN++HUWKFFEmlrlz58aqVav0sgB0x3Xa4GfPHQY/ZDpCQ0Mxd+5clChRQrMKqGHDhkrxdhaDJtLRkiXwss8P/Pyr4W3zivfyJV4O+AXBmbMismM34Nkz9QSR8WLwQzqbf9pLM5kYto/BDxGZHtleMnv2bDg4OCiTStlacvToUfWsfvhuwwPNvXrX7QB1lMh0vH79Wrkuv/76a00x6Pz58+OPP/6An5+f+igi+k8vXyKseQs8zZIH2LFbHTRQd+/CuXAJPMpZFNi+Ux0kMl4MfkhnC89og5+he53UUSIi0xMcHIyBAwcqhWVlUtm8eXPcu3dPPZu2OicIfnbcYvBDps3d3R0jR46Eo6Ojcq3KNduxY0ecO3eOxaCJ/svdu/B1zAe/ap8qHbIM2uvXeDZ8GO5ny4Xwtt8CQayBR8aNwQ/pbNFZbfAzeA+DHyKip0+fol27dsqEUlYW9OzZM83bS3fZ+FBzr/7zJoMfIiGr9TZu3Kip1yVHxYoVsXz5cr2u2UWUpmYvgL9VFmDYb8Br/dvanGSennCqVRPOOQoC69apg0TGicEP6WzJOW/NZGLQbgY/RETxZPVA9erVlcmkjY0NJk6ciMjISPVs6uq6SRv8bLvhr44SUbwbN26ge/fuyJw5s3LN2tvb49dff8Xjx4/VRxARQkLhVr86bubLAly6qA4avtcr1sA7W34ElCoqSwLVUSLjw+CHdLbsvDb4GbDrqTpKRERCto1s3boVhQoVUiaTefPmxdq1a5V6I6npp82PNPfqLdcZ/BC9S0hICObMmYPixYtrVgE1btwYu3fvZjFoouPH4ZbXEd7NGwDGtCouIACBX7SEr609YocMUQeJjA+DH9LZigs+mslE/50MfoiI3ka2lMyYMUNZRSATyUqVKsW9fj6unk153bZog59N11jIlui/SDj7119/4auvvkpUDHrSpEnw92d4SibodSyiBw2Cp10WYM4cpT6OUdm9G565CsG3QAmAK/3ISDH4IZ2tvKgNfn7Z8UQdJSKitwkMDET//v1hbm6uTCRbtmyJBw8eqGdTTo+t2uBnw1UGP0RJ4ebmhhEjRiB79uzKdWthYYHvvvsO58+fZzFoMh2uLnCvXhEPCuQ3zmAkMhKvevaFX+bsiOn9KxAVpZ4gMh4Mfkhnqy/5aiYTfRn8EBF9kCdPnqB169bKJDJDhgz4+eefU3QVQa9tjzX36vVXGPwQ6UJW7m3YsAE1atRQrl05ZPXeihUr0qx+F1Gq2bkdzo52cG/bWh0wQteu42nhovDKURw48pc6SGQ8GPyQztZe1gY/P//JZZFERElx5swZfPLJJ8oE0tbWFpMnT0ZUCrzLKPfn+Hu13LeJ6ONcv34d3bp10xSDzpIlCwYMGKCEukRGJzYWkd99B99sWRGzaJE6aIRiYuA/fAgCM+fF85btgNBQ9QSRcWDwQzqTd47jJxPyjjIRESWN1BLZvHkzChYsqEwgpY7I+vXrk7UAdJ/tTzT3almpSUTJQ4pBz5o1C8WKFdOsAmrSpAn27t0bN1c2glbXROLePfiVKAbXypUBb2910Ej5+sKjWEX4ZyscN9HZpA4SGQcGP6QzqRURP5mQGhJERKSbFy9eYOrUqbCzs1Mmj1WrVsWpU6fUsx9HarDF36ulNhsRJS8Jao8cOYIvv/wS6dOnV67hAgUKKKv4AgIC1EcRGahlS+GZzRqevXvG/bKrY8ZsyRL42eeFe+3mgIurOkhk+Bj8kM6kO0z8ZKI7gx8ioo8mk8S+ffsqtX9k8ihdhR49+rj7q3RdjL9XSzdGIko5rq6uGDZsGLJly6Zcw1IMunPnzrh48SKLQZPhefECoQ3qwzWXHbB7hzpo5OL+HQ79vAkeOeRF4B8TEXfhqieIDBuDH9LZluv+msnET5sZ/BARJRcJeyT0kYmjhEASBum6cmDALm3ws+y8kS/TJ9ITsopPtm1Wr15duY7lqFy5MlauXMli0GQ4rt+Gd+E88KxbFfAxoTcONm6Fa/4s8K5QlO3dyWgw+CGdbbuhDX66bnqojhIRUXI5efIkqlSpokwaZRuYbAeTCWVSDNytDX6WnGPwQ5Tarl27hp9++gmWlpbKtezg4IBBgwbh6dOn6iOI9FPMrPl4apcZz4cMkD2N6qgJiIpC8A+d4GNvjee9fwa46IeMAIMf0tmfNwM0k4kuGxn8EBGlBKkfIm2kpfCzTBqldsimTZs+uAD04D1Omnv1orNe6igRpbbg4GDMnDkTRYsW1awCatq0Kfbt28di0KR/nj+HT5VacMqXD7h8SR00IZcu4GnxknDJmg04fVodJDJcDH5IZztuaYOf7zc+UEeJiCglSKt3KRYrrd9lwiit4KUl/H8Zulcb/Cw8w+CHKK1JaHvo0CG0aNFCUwy6UKFCyoo+FoMmvXHxHFzj/r3x/rqVtLBTB03Ii2iE/joYQTYO8OzYBnj2TD1BZJgY/JDOdt3WBj/fbWDwQ0SUGvz8/NC7d29NAejWrVvjyZMn6tl/G7bPWXOvnn+awQ+RPnFxccFvv/2mKQadKVMmfP/997h06RKLQVPaefU/xA7+BZ5WGRG5YLbpbnV6/AS+FavgYR5bYP8ubvkig8bgh3S2506gZjLRcd19dZSIiFLD/fv30bJlS2WyaG5ujv79+yMoKEg9qzVivzb4mXvKUx0lIn0itbvWrl2LTz/9VLmm5ahatSpWrVqlrPYjSlUeHvCvUBo++XMDplyLSrZUL14E1xyZ4dLwc8CTb56Q4WLwQzrbe1cb/HRYy+CHiCgtHDt2DJUqVVImivb29pgxYwaio6PVs8DIAy6ae/Xskwx+iPTd1atX0bVr10TFoAcPHgwnJyf1EUQpbNcuuGexR9h3HZVCxyYtOBguNSrBKVsOvJg1h+3dyWAx+CGd7b8XpJlMfMPgh4gozUjNEFktkDdvXmWiKPVCtm7dqmwVGX1QG/zMOumhPoOI9J2s4JMgt0iRIppVQM2aNcP+/ftZDJpSTlQUQr/rBCc7W2DLRnXQxK3fADfHvHCuUQN4wgCWDBODH9LZwfva4KfdmnvqKBERpZXIyEhMnDgR1tbWyiSxRtyL1B9n7tDcq2ccZ/BDZGgk2D148CC++OILTTHowoULY9q0aQgMDFQfRZRMHjyAb5kScCpdQlntQnFevMCL9t/hflZHBP/2GxATo54gMhwMfkhnhx8EayYTbVYx+CEi0he+vr7o2bMnzMzM3qwUKFYX6bpuwrRj7uojiMgQOTs7Y+jQociaNatybUsx6C5duuDy5cvqI4g+0tIl8LS3RGCPn+L+wG1NGsdOwbVIWbgXygWcYXt3MjwMfkhnRx5qg5+vV95VR4mISF/cvXsXxarVfRP+mGVA7TbdEMx3cIkMnhR8XrNmDapVq/bm+o475P9ljMWgSWfPniOwWVN45sgBHNyvDpIi7rp61r0PXLI4IPT7bsBrdZzIQDD4IZ0dfaQNflox+CEi0ksT/3JDutYzkS77mzohUih29uzZiQpAE5HhunLlCn744Qdl9Y9c47IaaMiQIcrqIKIkuXwZ/gVKwPfTOgC3Ef7bvXvwKFMV3nZ5gGN/q4NEhoHBD+ns2OMQTfDz5QoGP0RE+mjSUbc39+r+x9F60DTkzp1bmRxKwdjt27crBaCJyPBJvR+p+yPF3eUal3pAUhdI6gNJnSCi//J8zEh4WDvixfAx6gj9y4LF8LWyhU+9TwA/P3WQSP8x+CGdnXiiDX5aLL+jjhIRkT6Z8re75l494YgbIiIiMH78eFhZWSmTw1q1auHixYvqo4nI0EnHrwMHDqB58+aJikFPnz5d6RRG9FahofCt9Sl8C5YAzrNm1Du5uyOoaiV4/r+9+4CvqmjQOKwRQkiHhN6kFwFpUq1IsaBiRcUGiBVFRVGsiKioKCoKKDYUUBRUFEGKIB3pvSWk904KpOG7mZOTBL5VJAmQm5v/8/vO7jLn5u4uhEPmvTPveFeSPvuYLV8oNwh+UGIrApILJxNXTyP4AQBHNGFZUfAzdlGwPSpFRkZq2LBhhRPDQYMGKSgoyL4LwBkEBgZq1KhR1hZP8/fczc1N9913n7U9DDjBkiWKqlNLUddcY4VA+Dd/S19/qThvHyV1uUQKKvp3FXBkBD8osZWBRcHPVdN22KMAAEfy9h9hhc/qV44Lfgrs2LFDffv2tSaFrq6uVjdIUlKSfReAMzCFz1988YU6d+5s/V0310UXXaSvvvpKR48etV+FCutvKfPB4Qr081b2xx/ag/hXuTk6fPVARVatp/QXXuZ4d5QLBD8osdWHUgonE/2mEvwAgCOauLwo+Hlp4b+v6Fm0aJEuuOACa0JoymE/+OADZWVl2XcBOAPT6WWOfjdHwBeUQfv5+VlHxLPirwJLSlVgixYKbtnUKjDGKVi8VDHVGyuyeVuJ7dIoBwh+UGJrg4qCnz5TttujAABH8t6K8MJn9QsLTj6xy8nJ0aeffqpatWpZE8LmzZvrxx9/pAAacEKmDHrChAlq1KiR9ffdbPu89tprtXDhQsqgK5pZPyjE20eJd94ipafbgzipLOnofQ8owruq4h6611o1BTgygh+U2LrgouCn98cEPwDgiCb9WRT8jPn11I53Tk1N1UsvvaSqVataE8JLLrmEThDASZky6F9++UVXXXWV9ffdXObUv3feeUeJiYn2q+C0MjKUdMtdivT1luZ8aw/ilGzbrrDOzbWvSQ3p1wX2IOCYCH5QYhtCDhdOJq74iOAHABzRByuLgp/nTjH4KRAREWEVwRYUQN95550KCQmx7wJwNgEBAXrqqafk6+tr/Z03ZdBDhgzR5s2b7VfA6QQGKqj5hQpt10YKD7cHcUr+lo68OVb7a1VTQL/LpMOH7RuA4yH4QYltDC0Kfi6bvM0eBQA4ksmrIgqf1aN/KV7wU2Dbtm268sorrYmg6QUZPXq0UlJS7LsAnE1GRoY+//xzderUqXAVUNeuXTVjxgzKoJ3Nhx8pxKe2kh95lJLikjgYoIM9LtKhulWkubPtQcDxEPygxDaHpRZOJi75kOAHABzRx6uLgp+n5wfao8Vnen4WLFig1q1bW5NAf39/ffTRR3nzBCYKgLMyf+/Xr1+vu+66yzr1r+Dv/rPPPqvgYI6xLveSk5V49bUKqVFLWr7cHkSxmG6fL79QsF9lhfbqIsXF5Y8DDobgByW25bjgp9cHW+1RAIAjmbImsvBZ/dRPJQ9+CpgC6KlTp6pGjRrWJLBly5aaP38+BdCAk4uNjdWbb76phg0bWn/3zRbQ6667zjoRkDLocmrjRoU0aKjAbh2ktDR7EMV2OFXJN12n4Oo+Snn5RVZOwSER/KDEtkWkFU4mer5P8AMAjmja2qLg58mfAuzR0jt8+LCef/55qwPETAIvv/xyekCACsCUQZuwt1+/ftbffXM1a9ZM7777LmXQ5cmxYzr2/IsK8amhIy+MsQdRYr//rkM1aml/+9bSVuZFcDwEPyixHZFFwU/3SVvsUQCAI/l0XVThs3rkj6cv+CkQFhamu+++u3ACaLaEmDEAzu/gwYN68sknC8ugzUmAQ4cO1ZYt/Fzo8GJilHhZHwU3bi6tX28PosQysxR792AFV/fSsccfk7Ky7BuAYyD4QYntikovnEx0fY9/4AHAEX22vij4eWzeQXv09DMTPbPqx0z+zCqgMWPGWKuCADg/UwY9ffp0dejQoTAE7t69u77++mvKoB3VkqUKqFNPB3tfZh3pjtNg5w6lNG6koPr1pAUc7w7HQvCDEtt9XPDT5V2W9wOAI/p8Q1Hw8+jcMxf8GKbn55dffrF6f8zEz/QATZkyxeoFAuD8zDNg3bp1Gjx48All0M8995xCQkLsV8ERxD/woA76e0mffGSPoPT+VtaoUQqtVk2JNw6kNwkOheAHJbY3pij46TyR4AcAHNGXf0UXPqsf+eHMBj8FzElf5sQvM+EzEz9zEpg5EYwCaKDiMGXQr7/+uho0aGA9B1xcXHT99ddr8eLFlEGXtYgIRbVsqZB2TaWdO+1BnBYBAQrvepGi/Xyk77+1B4GyR/CDEtsfm1E4mej4DsEPADiiGRuLgp+Hvj9gj54dKSkp1rHPVapUsSZ+vXv31rZt2+y7ACoCs+Lv559/Vt++fa3ngLmaN2+u9957T0lJSfarcDYd/eZzBfv7KfTeQXm/YCveaWU+4PjyS0XXqK6Ybp2k+Hj7BlC2CH5QYgfjioKfC9/eZI8CABzJN5tiCp/VD8w5u8FPAbPFw2z9MBM+cwT0vffeq/DwcPsugIriwIEDeuKJJ+Tj42M9D0wZ9LBhw7SVU5DOnty/lXTL9Yqs5qNjc1iRckbExCrh2v6K9qysY29NyPs9t8eBMkTwgxILjD9SOJlo9xbBDwA4olmbi4Kf+7/bb4+WjY0bN+qSSy4pnPC9+OKLSk1Nte8CqCjS09P16aef6sILLyxcBdSjRw/NnDlTmZmZ9qtwRkRGKap2dR1uf0HeD/PB9iBOux/mKKqGt1JatZKC6bdC2SP4QYkdOi74uWDCRnsUAOBIZm+JLXxWD51dtsGPYXp+fvzxRzVr1sya7NWqVcuaAFIADVQ85nmwZs0a3XHHHapcubL1TDCl8M8//7xCQ0PtV+G0yfv9jpg6VSE+lZX+zCOsRDmTMo4qdtidivY5V3pmjJTFv3EoWwQ/KLHgxKOFk4k2bxL8AIAj+m5rUfAzZPY+e7TsZWVl6YMPPlD16tWtyV7btm21aNEi+y6AiiYmJkbjx49X/fr1rWeCKYO+4YYbtGTJEsqgT5fDh7U/7/c03K+m9OcKexBnzN5dCmxUTYm1GkhLltmDQNkg+EGJhSYVBT+t3vjLHgUAOJLvt8UVPqvvneU4wU+B5ORkPf3004VHP/fr1087duyw7wKoaMzqP7MqsE+fPtYzwVwtWrTQ+++/bz0vUAobNyqgbl3Fd+8rJVA6fMbl5ir2iYcU7eupI3cP5Xh3lCmCH5RYeHJm4WSixesEPwDgiOZuLwp+7p651x51PEFBQRo0aJA1yTMF0EOHDlVkZKR9F0BFtG/fPj3++OPy9va2ng3u7u4aPny4tm/fbr8CpywnR3GvvKpgH3flvPlu3gCrqM6KwEBFt22u6Lr1pTlz7EHg7CP4QYlFHBf8NBu/wR4FADiSeTuKgp/B3zhu8FNg/fr16tmzZ+Ek75VXXrGKYAFUXGlpafrkk0/Uvn37wlVAvXr10qxZs6xtozgFMTEK6nOFgvzqSDt32oM4K95/V1E1fbTvyl5SXKw9CJxdBD8osaiUouCn6WsEPwDgSLJyjmlbRJqun76r8Fl9x4w99l3HZgpf586dq6ZNm1oTvDp16uizzz5Tbi5NpEBFZp4Nq1ev1u23365KlSpZz4eaNWvqhRdeUFhYmP0q/KPFv2uPv5diu18pHeNZelZFRCjsss46VK+aNOVjexA4uwh+UGIxqVmFk4nG4wh+AKCspGfmam1Qij5aFaFh3+5Xx3c2y3XUysJndME16KvyEfwUMJ/kv/fee6pWrZo1wWvXrp0WL15s3wVQkUVHR2vcuHGqV6+e9XwwZdA33nijli5dagVEOE6OFPXIcIX5e0mffWUP4qya/4MC69ZVSPMLpfBwexA4ewh+UGJxaUXBT6NX19ujAIAzKSE9W0v3J+ntP8KsFTwtX/9L5x4X7pzsuvXL8hX8FEhMTNSTTz5ZeNzzVVddpV27dtl3AVRkpgx63rx56t27t/V8MFfLli2tUwNTUlLsV1VwgYEK7txZMU3rm+IkexBnVXqqkgffrXjv2kp77Im8b1y2KOLsIvhBicWnZRdOJhqMJfgBgNPJfGIdlnRU83fFa+yiYN3w2S7rWXt8kHOyy+XJP3XBhI2665u9endFmFYEJCv5SI797uVTYN7k5ZZbbin8dN+UvJpP/QHA2Lt3rx577LETyqAfeOCBCn9SYO70LxTuV0dHBg20Sp5RRv5YrqB6dRVev7m0Zas9CJwdBD8oscT0ouCn/ivr7FEAQHEdO/a39sdm6NstsRr9yyH1nbJD/i+sOSHIOdlVZdRKXfTuFj0w54CmrY3UXyGHdSTLeTsc1q5dq+7du1sTOw8PD2u7R0ZGhn0XQEVnyqCnTp2qtm3bFq4Cuvjii/Xtt99WvDLo7GzF3TpIYf71pe9m2YMoE0ePKu2pEYqt6qfcoY9JHFyAs4jgByVmPjkumHTUfZngBwBOhSld3hqeqs83RGnE3IPq9cFWeYxedUKQc7LL57nVumzyNj3xY4C+3hijXVHpysmteH0WZkXUnDlz1LhxY2tSV7duXX355ZcUQAMoZJ4Tq1at0qBBgwrLoGvVqqUXX3xR4RWlZ2X/foU2a63wthdJhw7ZgygzYWEKbNZEgTUaSj/9bA8CZx7BD0rs8NGi4Kf2S2vtUQBAgbTMXK05lKLJqyI0dHZ+6XLlp/5/6fK/XebZevW0nXp+QZB+2BanQ/FHKC39H5mZmZo4caJ8fX2tSV2HDh20bNky+y4A5IuKitKrr75qhcTmWXHeeefppptusp4XzvxczR73qkJ9qyvrqWfsEZSpvO+1nImvKdC/ulKuvFGKj7dvAGcWwQ9KLPW44KfmiwQ/ACo203u2ZH+i3loWqtuLWbpsriavbdDNX+zW+CUh+m1PgqJSMu13xqlISEjQyJEjCz/Vv/baa7VnT/ksswZw5mRnZ2vu3Lm64oorrGeFuVq1aqUPP/zQ+cqgc3IUccVlCm1UR1rCiYgOIzpaAVd0VbB/U2nql/YgcGYR/KDEzPHBBROWGi8Q/ACoGMwnw6FJR/Xzzni9sihY108vXunyeU/+qbYTNurumXv13opwpyhddiQHDx60PsU3kzlTAP3ggw8qJibGvgsARUw4PGLECHl5eVnPDNMZ9tBDD2nnzp32K8q5Tdu0p6aPoq7saYUNcBw5389SYIM6iujU1fzDZY8CZw7BD0rMFIcWTGT8nl9jjwKA88g99rf2xWRo9pZYPTM/UH2mbLeed8cHOSe73J5eqa7vbdGDFaR02ZGYXo+LLrrImsx5enpq/PjxFEAD+EepqamaMmWKLrjggsJVQJdccom+++678lsGnSOlj3lNQb7u0vhXrS1GcCDJyYq8eYDCvH2kF162B4Ezh+AHJZaZc6xwclNtDMEPgPLNPNO2hKXqs/VRenTuQfV8v/ily5dP3qYnf6rYpcuO5NixY5o9e7YaNWpkTeTq16+vGTNmWOMA8L/Mis6VK1fqtttuK9w2Wrt2bb300kuKiIiwX1VOJCcr7NI+2l/bT9q6xR6EQ1n4mw40bqSoJk1Z9YMzjuAHJWZOpjl+wgMA5YXpKFt9KEUfrozQkNn71OHtTcUqXa7z8jpd88lOvbAgSHO3U7rs6I4ePaq33npL3t7e1kSuU6dOWrFihX0XAP6/yMhIjR07VnXq1LGeG6YM+uabb9by5cvLx/N+4QIF1PBW3ICrJFY7OqbsXMW/MErRblV0bNCwvF8ftW8Apx/BD0rMfJJdMAnyepbgB4BjikvL0uJ9iZqwLFSDvtqjFsUsXW762gbd8uVuvb4kRAv3Jij6cDld9g/Fx8dbfR4Fn+Rfd9112rdvn30XAP4/Uwb9/fff6/LLL7eeG+Zq3bq1Jk+erMOHD9uvcjBHjyrxgaGK8K4kzfjCHoRD2rldMS1bKL5afWk5H0jgzCH4QYkdO1YU/HiOXmWPAkDZKChd/mlnvF5eGKzrpu9S/VfWnRDinOwypcvt3tqke2bu06Q/w/VnQLJSKF12Svv379cNN9xQ+Cn+I488ori4OPsuAPyz3bt3W88L0xtmnh/mvz/88MPatWuX/QoHERiokA7tFNCwmhQSYg/CIeVk6+gbrynCy1MpN90lJSbaN4DTi+AHJWYmWQUTJvdnCH4AnD3Hly4/PT9QV368XdWLWbrc7b0teuj7A/pkbaQ2hlK6XBH9+eef6ty5szWBM6f6vPnmmzpy5Ih9FwD+mSmD/vjjj9WmTZvCVUCXXnqp5syZY60QKnNffq4Av2qKuuNWSp3Lg4QERXZqp3jf85U1fQZ/ZjgjCH5QKgXbJcwkCgDOhONLlx/54aB6TNpqhc3/G+b821VQuvzUT4H6ZlOMdlO6jOOYoudvvvlGDRo0sCZvDRs21MyZMymABvCfzIegpi/s1ltvtVYPmmeI6QR65ZVXyq4M+sgRHbl5oMJqVpe++84ehKM7Nn2KQnz9FHnFlaZgyh4FTh+CH5SKy5P5EyvXUQQ/AErv+NLl+2bt04Vvb1Klp/5/mPNvV0Hp8ou/BWnejjgFJVC6jFNjVvq88cYb1sofM3nr0qWLdboPAJwKUwZtAp/jy6BvueUWKxg6q/8O7dypkOb1daBjKyk23h6Ew0tPV2T/yxTu46H0N99i1Q9OO4IflErBhMychgMAxXF86fJtX+1R8/ElK11+Y2moFu1NVEwqpcsovdjYWKvDo+DT+4EDB+rAgQP2XQA4ObPVy2z5uuyyy6xniLnMlrCPPvrorJRBZ78+TkHe1ZU86nl7BOXG0qWKqddUwW1aSls4gh+nF8EPSsWs9DETMFOKCgD/xHzSGZJYVLo84NOdqlfC0uX3/wzXykBKl3Hm7d271zr1y0zazClg5jQwcyoYAJwqU/psyp+PL4M2wbIpiT4j0tIU3+dyRdZrLP3+hz2IcuPIEWUOGa6A6tWU8tgjZi+yfQMoPYIflIrp9jETM/MpPQCY0uW9MematTnGKl3uXczS5arPrCosXf50XZQ2habqaDY/+KDs/PHHH+rYsaM1afPx8dHbb7+to0eP2ncB4L+ZlT5mxY85Br5gFZA5Ht4cE39ay6BXLFdw3fqKvuwyiZMKy6f167S/RVuF1GsirV1rDwKlR/CDUjGTtIIJG4CKxZQubw5L1fR1+aXL3SdtKVbpsu9zq3XFR9ut0uWZm2K0J5rSZTgmU/Q8Y8YM1atXz5qwnX/++fr222/pjwJQLOaZsXz5ct18882F20nr1q2rsWPHKioqyn5VyaU+85RC3KtJr79uj6Dc+TtXevUtxbj7K2HANVJGhn0DKB2CH5SKx+iiSR4/AAPO6/DRHK0KTNYHK8Ot0uX2bxWvdLnuy+t07af5pcs/7ohTcOJRnhkodzLyfgAfP3584baNrl27avXq1fZdADh15tSvl19+WbVr17aeJ2ZLqTkd7M8/S/gzdXa2Qi+8QEkNWkt/bbIHUS4dOqTIjh0V5lNd+vEXexAoHYIflIrXs6sLJ3ZmiweA8i82NUu/70vUm0vzS5ebjd9wQojzX5d5/a1f7rFKl837mPcDnEl0dLQefPBBubi4WBO2m266SQEBAfZdADh1WVlZ+u6773TJJZdYzxNzXXDBBfr444+Vmppqv+oUzJunQ97eOjrwTqvrB+WY6fb54lMF+9VQ3KXXmpTQvgGUHMEPSsXnuaLgJzuXHg6gPDGfKJqVN2YFzksLg6zSZbMy5/gQ52SXWfFjVv7cOyu/dNmsCDIrg4CKwhS0XnPNNdZErXLlyho5cqQSEhLsuwBQPDt37tRDDz0kDw8P67ni5eWlRx99VHv27LFf8S8yM3VsyP0K8a0mfTHTHkS5lp6m0AHXKNS3nrLffkc6lmvfAEqG4AelYjo6CiaBpu8DgGMyK/JMh47p0hn1c37pcrUxxStdNh0+D9uly6bbh9JlIN/SpUvVvn17a6Lm6+uriRMn5s3DMu27AFA8KSkp+vDDD9WqVavCVUCmDPqHH3745zLo8HDFN22pyKZNpf2B9iDKvblzFeFfS9GdukgHDtiDQMkQ/KBUjj+th0kg4BjM30VzGpYJaExQYwKb44vY/+sygZAJhkxAZIIic0oXWzmBk8vNzdUXX3xhFbWaSVrjxo01Z84cuqwAlJh5fpiTBc120uPLoF999dUTyqAzv/pMkR7eyr1viJTFz+NOIytLcYMGKqh6NcU/90LePzT8e4KSI/hBqfi/UBT8ZGSxBBE428zWqpWBydZWK7Plqrily/VeWWdt8TJbvcyWrxBKl4FSSU9PtyZlBVs1unfvrrUcyQuglMLDw/XSSy+pVq1a1rPFlEEPGjRIKxctUuqtgxTi5S/9tsx+NZzGli0Ka95SQQ2bSsuX24NA8RH8oFRqvri2cAKZlknwA5xJMalZWrQ30SpNNuXJxS1dbj7+L6us2ZQ2U7oMnFnm0/j777+/sADanNYTGMgWDAClY8qgv/32W1188cXWs8VcLStX1vga9ZRGCbDzyc5W1hPPKszLT/F33Wb9GigJgh+USq3jgh9KXYHTw6y4CUo4onk74qzjz80x6MUtXb7w7U3Wsevm+HVKl4GyY8pa+/fvb03OTAH0U089paSkJPsuAJTc9u3bNfyiznKzAyBTBj1ixAjt3bvXfgWcwr79isn7cw6t7yX9PNceBIqH4AelUue4yWjyESaWQHHl5P6t3VHp+mZTjJ76KVBXfLT9hNL0/7rcn1mlHpO26pEfDmq6XbpM0TrgeH7//Xe1a9fOmpxVq1ZNkyZNsj65B4ASS0xUat9Ltaemlz54ZIRatmxZuAqod+/emjdvnnJy+Pm83DM78D+erDB/V8Vd3kdKOpw/DhQDwQ9KxfSDFExAkzJYegicjCld3hh6WJ+sjdRD3x9Qt/eKV7psytSv/Hi7np4fqFmbKV0GyhtTAP3ZZ5+pdu3a1sSsadOmmjt3Lr1aAEpm2XLF16muyC6tpLR061mybNky3XjjjYXbTOvVq6dx48YpOjra/iKUS5GRCry8h6K9q0kzvsoPg4BiIPhBqTQYu75wUpqQTvADFEg5kqM/A5I16c9w3TNzn9q9tUnnPfn/w5x/u+q/sk7XTd+llxcG66ed8ZQuA04kLS1Nr7zyitzd3a2JWa9evbRhwwb7LgCcgryfCRIfe0IR1TykSW/bg0XCwsL0wgsvqGbNmtZzxmw1vf3227V69Wp+niivFi1SVB0/xbZrJh04aA8Cp4bgB6XS6NWi4CcujSXrqJhM6fLCvQl6fUmIbvlyt5q+VrzS5Rav/6VBX+3RhGWhWrwvkb9LQAURERGhIUOG6Nxzz7UmZuaEnqCgIPsuAJxEXJwiOnVUSPMm0qaN9uD/Z7aUzp492wqYzXPGXO3bt9e0adOsEBrlSGa2kgfdpGivKkp86SWKnlEsBD8olfOPC37M5BdwZgWly3O3x+mFBUG65pOdJ/Rc/ddlSpc7vL1JQ2bv04crI7T6UIpSKV0GKjxT0NqnTx9rQubq6qpnnnlGycnJ9l0A+Aczv1a0n5diB14vHTliD56cVQY9fHjhakNvb2899thj2rdvn/0KOLxVK3WobgOFXNhe+uvfAz/gfxH8oFSaHLeyIfowwQ+cR0Hp8tcbY/TkTwG6fPK2EpUuPzr3oD5bH6UtlC4DOAkTLC9cuFBt2rSxJmR+fn768MMPlc0nugD+QcCwwQrxqyp99ok9cupMsPz++++rRYsWhauArrzySv3444+UQTu6Y8eU+eRoBfn6KnLYg6cc+gEEPyiVZuOLgp/IlEx7FChfCkqXp62N1INzDqjre1vk9vTKE4Kck10FpcvPzA/U7C2x2heTQekygBIxk65PPvmksJejefPm+umnn+jkAFAkPl6b2zRUaIdG0p5d9mDxHTt2TEuWLNHAgQMLy6Dr16+v1157TTExMfar4HD27VNYm54Kq9dCWrjQHgROjuAHpWK6SQomv+HJBD9wfAWly++tCNfdM/eq7YSNJSpdfmVRsH7eGa/QJEqXAZx+qampevHFF1W1alVrMnbppZdq06ZN9l0AFVnatKk65OenrPvuNWmxPVo6oaGhev7551WjRg3rmWPKoO+44w6tWbOGn3Mc0YR3dahaAyVcO1BKT7cHgX9H8INSaXlc8GMmwIAjMdsPTeny+CUhuvmL3SdsTfyv69y8q6B0+a1loVqyn9JlAGdfeHi47rnnnsIC6MGDByskJMS+C6DCychQ6C0DdahmPenXX+3B0yczM1OzZs1Sz549rWeOuS688EJrJWI6AYPjiI5WUt8BCvepK02ZkjdAOIeTI/hBqbR+Y2PhRNkcNw2UBfNJ1KH4/NLl5xcE6eppO1X7pbUnBDknuyo/tbKwdHnyqgitoXQZgIPZsmWLrrjiCmsSVqVKFT333HNKSUmx7wKoMHbu1P5GfjrYracUeWa3Y23btk33339/4cpDHx8fjRw5Uvv377dfgTI1c6aC/WsppGtnKTbWHgT+GcEPSuWCCUXBjzntCDjTTOnyruNKly+bvE0+xShd9hi9Sj3fzy9d/nxDlLaGU7oMoHwwIfevv/6qVq1aWZMwf39/ffzxxxRAAxXFsVxp/DiFep2nxLEvSnm/PBuSkpI0adIkq3OsYBWQOYnQ9I9RBl2GEhMVd+tNivCuJk2YKGWfpW8IlEsEPyiVdm9tKpxQB8YT/OD0OpKVq79CikqXL3q3eKXLfs+vUZ8pRaXL+2MpXQZQ/pmJ1pQpUwq7OFq2bKn58+fTwwE4u8QEHe7bW/tqeklr19iDZ48pg168eLGuv/76wjLoBg0aaPz48ZRBl5V16xRQv4ECzm8rbdtuDwL/H8EPSqX9ccHPwbgMexQovuQjOVpxXOmyWU1WnNLlBmPX6/rjSpfDKF0G4OQOHz6sMWPGyM3NzZqAXX755daWMABOavVKHahZQ3sv7mHKeOzBsmG6xszz5/gy6DvvvFNr167l56+zKSdHoQ8OV2i1+sp49DEpiz5K/DOCH5SK6UUpmHib1RTAqYhKydRve4pKlxuPK17psikVv31GUelyfBrbHABUXOY0nrvuusuafJnr7rvvVlhYmH0XgFPIm+AfHfmI9vn6SB+ZMl/HYMqgv/nmG/Xo0aPwGdShQwd9+umnlEGfLfv362Cr5gquV0f6bYE9CJyI4Ael0mni5sIJ+b4Ygh+cyHziY7YA/rCtqHS51ovFK13u+M5mDZ29v7B0OS2T/csA8E/Mce/m2Hcz8TKrgMzRzOZYeABOIDRUkRd10+6WrUzrsj3oWMyKw2HDhp1QBv3EE0/owIED9itwRuT9vJ01YbxCa/ko/MarpZRk+wZQhOAHpdLl3aLgZ080qX5FZkqXd0amacbGaD3xY37psvezxStd7vXBVo04rnQ5i9JlACgWE7j//PPPatGihTXxqlmzpqZOnUoBK1De/TBbQX7na//AOx1+O48pg3733XfVrFmzwlVAffv2tZ5Nubl8gHdGBAUppEdnBTTwzvtemWUPAkUIflAqpmy3YOJuTlpCxWBKlzeEHNbUNZF6wC5drjLq1EuX/V9Yo75Tdmj0L4f0rV26fIzSZQA4bcxJX5MnT5afn5816WrdurUWLFhA9wZQHuXkKOa+OxTkU0/6dIY96PhMGfTvv/+u6667Tueee671LGrYsKHeeOMNxXL8+On35ecKqOWvfd17SfHx9iCQj+AHpdLtvaLgZ0dkmj0KZ2JKl5cfTNK7K8J01zf5pcsuxShdbjh2vW74bJfGLgrW/F2ULgPA2ZSSkqLRo0erSpUq1qTryiuv1DYH3SYC4F8EBCiyTWuFtG0nldNtU8HBwXruuefk7+9vPYtcXV01ePBgrVu3jp8LT5e8533soHsV7F1Xme+8aW0BAwoQ/KBUekzaWjjB3x5B8FPemdLlBbsT9NriEN30efFLl1u98ZfumLFHb/8RpqX7k5SQTukyADgCM+m64447rAmX+eT9vvvuU0REhH0XgEN7+32Fe1RXygNDy/1k/ujRo/r666/VrVs363lkro4dO2r69OnKyKAvtNR++0OJNZsopllDKTDQHgQIflBKppOlYOJvOllQPphtVaZ0+fttcRrz6yFdNW1HsUuXTbH3sG/366NVEVobROkyAJQHGzZs0MUXX2xNtkwB60svvaS0ND64ARxWTpZS+wxUfPX60k8/2YPOYfPmzRo6dKhVRm+eSb6+vnryySd18OBB+xUotiNZ0sjHFeNVWYkPPWqSNvsGKjqCH5TKJR9uKwwDNocR/Dii7NxjVunyV39Fa+SPAbo078+sOKXLnqNX6eIPtuqxeQf1xYZobYtIo3QZAMoxs61i3rx5hcWrtWrVso5epnQVcEC7dulgjfMV1/li62QvZ5SYmKiJEyeqadOmhauA+vfvr/nz5/NcKokdOxTdrInC67SW1m2wB1HREfygVEyIUBAQbAw9bI+irGTYpctT1kRq+Hf7rVPXilu63G/qDj37yyF9tzVWByhdBgCnlZWVpQ8++EDVq1e3Jlpt27bVokWL7LsAytyxY9LY1xToW0sZz72Y/2snZsqgzTNowIABhWXQjRo10ptvvqm4uDj7VfhPubk68twLinFvoLQ7h0upfDgPgh+U0uWTi4Kfv0IIfs6mpIxsq3R54vIwDf5mr9q8WfzS5YGf7dKrvwfrl13xCk/OpFwPACogc/Ty008/bZWtmolWv379tHPnTvsugDKTnKysrlfqUM1a0vr19mDFEBQUZBXTF5xMaJ5Pd911V95vw3p+Xj0Ved87SW07K6xaM+nr2fYgKjKCH5RK74+3FwYJ64MJfs4E849bpF26PO73EN34+W6d/+r6E0Kck10Fpct3fr1X7/wRpmUHKF0GAPx/hw4d0m233WZNslxcXDRs2DBFRkbadwGcdX+uUJSPn0L697Em8hWRKYOeMWOGunbtaj2bzNWpUyd9/vnnlEH/l4+mKLR6Y8X07iclJNiDqKgIflAqfaYUBT+m4BelY7ZVBcTlly4/9+sh9Z+6QzWLUbrsOiq/dPn+7/br49URWheconRKlwEAxWCOV+7Ro4c1wXJ3d9fYsWOVnp5u3wVwVmRmKvKJkQqr5qLUqR9xNHeeTZs2aciQIYVl0NWqVdNTTz2lgIAA+xU4QUKiQq8ZqOAa1aS338j7HrLHUSER/KBU+k7ZURg6rD5E8FMcpnR5h126/Pi8AKso26uEpctf5r2HOU6f0mUAwOlgVpv+8MMPatKkiTXBqlOnjvUJO0WrwFkSGqqwbj0VVbeGtG+fPQgjISFB77zzTuHzyVxXXXWVfv31V55R/2vhQgU3aqTgds2k4GB7EBURwQ9KxaxIKQgiVgVWzCWop8KULputcKZ02azG6TyxeKXLNV5YW1i6PGdrrA7GUboMADjzMjMz9d5771mfrJvJVfv27bVkyRL7LoAz5dhP8xThW13JV18rZbNF/5+YMuiFCxfq2muvLSyDPv/88zVhwgTFx8fbr6rgUlOVePudivGuouxXxuT9ptnjqHAIflAqV0/bWRhO/BlA8GOY0uU/DuSXLptendZvFK90udGrRaXLv+5OUASlywCAMmaOW37yySdVuXJla3J19dVXa/fu3fZdAKfVkSMKu+d2Rfl7SXO+twdxMqaj7Jlnnik8pbBKlSq65557tGHDBn6O3rFdB1ucr921qkqbN9mDqGgIflAq135aFPyYE6YqEvOPiAllTDhjSpdNWGNCm+NDnJNdJgwyoVBB6bIJixIpXQYAODDTpXHzzTdbEytTAP3AAw8oOjravgvgtNi9S5HNmymlVVNryxdO3ZEjR/TVV1/poosusp5T5urcubO++OIL616FlJ2trOdfUqRHZSU9cLeUcdS+gYqE4AelMuC44MecFuWszLYqs73KbLMypctm25XZfnV8kHOyy5Qum+1dBaXLZtsXpcsAgPJqzZo16tatmzWp8vT01GuvvcYJO8BpkvHR+4r09ZaGD6OQtxQ2btyoe++911r9Y55VZsvqqFGjFBgYaL+iAgk8pENd2+lQHV/p55/4vqqACH5QKtdP31UYbizZn2iPlm+mdNkUJZvCZFO6bAqUi1O6bF5riprN15r3MAXO5j0BAHAmZuXrd999Z3VqmElVvXr1rE/aTe8GgBJKS1Pk9f0U7F9N+m2BPYjSMGXQb7/9tho3bmw9q0wfkNmuumDBgopTBv23lPPVdB3y91J8395SXJx9AxUFwQ9KxWxvKgg8Fu8rf8GPWXVjjjw3q3DMahxzFLpZnXN8kHOyyxy1bgquzSogsxrIHMVO6TIAoCI5evSodcKOj4+PNanq0KGD/vjjD/sugGLZuFFxjesroksbKTLSHsTpYEIeE/aY0KegDNqEQW+99ZYVDjm9pCQFdO6oaD8facaX9iAqCoIflMpNn+8uDEEW7XXs4Mf055jtaKZPx/TqtHrjr2KVLp//6nrdmPf/r+nzMb0+kSmULgMAUMCcovP444+rUqVK1oRqwIAB2rt3r30XwKlIfOFZhflUVu7YZ+0RnAlmu9fTTz99Qhm02RZmtoc5tZ9/UlDDWgq+sGXeb0KAPYiKgOAHpXLzF0XBz297HCMpN2FMeHKmftkVb52MZVYlNRxbvNLlNm9u1OBv9lonc1G6DADAqTtw4IBuvPFGazJ13nnn6eGHH1ZsbKx9F8C/SjmqfV06KKJJDWntansQZ5IpfDbFz6YA2jyzzNWlSxd9+eWXzlkGnZWl8HvvUHh1D+U+O9oeREVA8INSufXLPYWBiVkFc7aZbVUHYjP03dZYPftLfumy/wtrTghyTnZVGbVSXd7drOHf7deUNZFW6XJGFqXLAACU1sqVef/G5k2gzETKy8tLb7zxRsU9VQc4FUtWKMjPX4lXX26KaexBnC1//fWXdQR8QRm0WQ1kjog3R8U7lWVLFdmsmUKbtJS2bbUH4ewIflAqg74qCn7MCpszKSvnmLZFpOmLDdF6bN5Bq3TZc/SqE4Kck13ez67WpR9u08gfA/QVpcsAAJxxpuh51qxZatiwoTWRatCggb7++msKoIH/lZOj+EcfVYSnpzRpIqculSGzbdX0/hQU15s+oGuuuUa//fabczy78r7Xcp95TpHetRU97G4pN8e+AWdG8INSuWNGUfDz887TF/yY0uW1QSn6aFWEhn1bstLlq6bt0JhfD+n7bXGULgMAUIZMAfSECRPk7e1tTaTMtoo///zTvgtA0dEK6NRCoU3rS7t22YMoS6YM+tdff7XKoM1zy1xNmjSxyuzLfRl03vdYcutOCq3tJ61daw/CmRH8oFRMD05B2PLjjpIdC5iQnq2l+5P09h9hVpBkSpfPPS7E+a+r8bgNVsn0a4tDtIDSZQAAHFZcXJweffRRq/vHTKKuv/567d+/374LVGCzZyvCq4rSbr9ZysiwB+EoTBn0qFGjVK1aNevZ5ebmpvvuu0+bNm2yX1HOmJVLk95TnKeHsq68UUpka6GzI/hBqdx1XPAzd/vJgx8TxoQlHdX8XfEauyhYN5SgdPmCCRut/53vrgjT8oNJSsqgdBkAgPLGhD0m9DETKBMCmTDIhEJAhZSWpuTbblOQl7s0d449CEeUkZGhzz//XJ06dSpcBdS1a1d99dVX1srGcuXwYaX3ukzRXvWVM+trexDOiuAHpXLPzH2FwcwP24p+YDPbqvbHZujbLbEa/csh9Z1S/NLli97dogfmHNDUNZHaEELpMgAAzmb58uWFEyizDcxsByt3kyegtHbuVFTLFtrfuqUUFW0PwpGZD7Q3bNigu+++W66urtYzzM/PT6NHj1ZQUJD9qnJg9rcKrllDIf2ulIKD7UE4I4IflMp9s4qCn/5Td2jE3IPqVYLS5csmb9MTPwZoxsZo7aR0GQCACsOUpZrC5/r161uTJ1MEbQqhKYBGhTH5A0V4eyrl/vslPucsd8xqxTfffFONGjWynmGmDPraa6/VwoULHf85lp2tuFsH6JB/DWnsuPwtYHBKBD8olaGz9/9jmPNvV60X1+rqaTv1/IIga4VQYDylywAAQNZR76+//ro8PT2tydNFF12kVatW2XcBJ5WcrMSreiuktr/0+yJ7EOWRKYP+5Zdf1L9/f+sZZq6mTZtq4sSJSkxMtF/lgFYsU0ijRkps117as8cehLMh+EGpmBO3/ingMZcpXb75i90avyREv+1JUFRKpv1VAAAA/ywmJkYPPfRQYQH0jTfeqIMHD9p3ASezapUi69ZU0EUdrRAIzsE8s5588kn5+vpazzFTBj1kyBBt3rzZfoUDyTmm1EcfVqi3p9KHDbWOe4fzIfhBqQz/bn9h6fLdM/fqvRXhWhGQrOQjPDAAAEDJ7dmzx9ouYSZNlSpV0uOPP17+j1AG/sexZ59RqK+vcl98yR6BMzFl0J999pk6duxYuAqoW7du1vZWh+oz279foZ26KqR+fWnlSnsQzoTgB6USkZypI5QuAwCAM2TZsmW68MILrQmTj4+P3nnnHWVmsooYTiAmRhFd2ym0cWNp7Vp7EM7IlEGvW7dOd911V2EZtL+/v5599lkFO0Kpck6Ojrz5lg56eirzpptMYmXfgLMg+AEAAIBDM90Z5rjkevXqWROm888/X9999501mQLKrcW/KbSBt6Kv6i8dTrEH4exiY2P1xhtvWEX25nlmyqCvu+46LVq0qGzLoCMiFHr5pYrw9FXeAzZvgOerMyH4AQAAQLlgtk289tpr8vDwsCZM3bt311pWSqCcSn5kuIL93KUPPrBHUJGYQHv+/Pnq16+f9TwzV7NmzfTuu++WXRn01zMV4e2nxD69zXFl9iCcAcEPAAAAypXo6GgNHz5cLi4u1mTplltuUWBgoH0XKAfM6opm5yukQztp9257EBXVgQMHTiiDrlq1qoYOHaotW7bYrzhLUlMVe821Cvf0Uu4bEzje3YkQ/AAAAKBc2rVrl6666iprolS5cmVr4uTQxyYDBWZ+o6jqPgodfK+Unm4PoqJLz/temD59ujp06FC4CsisbPzmm2/OXrfZunU6VK++wttfKO3bZw+ivCP4AQAAQLm2ePFitWvXzpokVatWTe+99x4F0HBc2ZmKvm2AYqp7SLN/sAeBIqa/zGxjvfPOO61Q2zzbTBn0c889p5CQEPtVZ0hOjhLvvVsRfr7KeuYpKYvTmp0BwQ8AAADKPdOX8fnnn6tOnTrWJKlJkyb64YcfKICG49l3QIca+Cmqa3MpNNIeBP6ZKYN+/fXX1aBBA+vZZra4Xn/99VbgfcbKoHfu0IF27RTYrLG0ZoU9iPKM4AcAAABOIy0tTWPHjpW7u7s1SerZs6fWr19v3wXKXuaU6Yr2dVXyY/dLWfYg8B9ycnL0008/qW/fvtazzVzNmze3VjgmJSXZrzp90l4cqxC/Wkq8b5CUnW2Porwi+AEAAIDTiYyMtMpRzVHJZoI0aNAgBQUF2XeBMpKQoIj+1yrMv7q0gpUUKJn9+/dr5MiR8vHxsZ5vpgx62LBh2rp1q/2K0yA4WBG9LlNwzTrSnDn2IMorgh8AAAA4rR07dhR+Qu7q6qqnn376jHw6DpySFSsUUbeOgrv3kA4ftgeBkjFl0J9++qkuvPDCwlVAPXr00MyZM09Pz9nXsxTn3Vjx5vv1aIY9iPKI4AcAAABOzfT8LFq0SBdccIE1Mapevbo++OADZWWxzwZnV/aLzynYx03xL78kcVI2ThPzjFuzZo3uuOOOwjLoGjVq6Pnnn1doaKj9qhKIiVFa/5sV6VFV+mQKx7uXYwQ/AAAAqBBMR4b5dLxWrVrWxMj0Y/z4448UQOPsiIhQWK+LFFrfX9q6yR4ETq+YmBiNHz9e9evXt55zpgz6hhtu0JIlS0pWBr1smULq1FBMmwulgAB7EOUNwQ8AAAAqlNTUVL300ktWL4aZGF1yySXauHGjfRc4Q36cq5C6dZV4ZW/pdGzDAU7CBN0m2O7Tp4/1nDNXixYtNGnSJCUnJ9uvOgVZRxUy7B5Fe9WSxo2TcjnevTwi+AEAAECFFB4ervvuu6+wAPrOO+9USEiIfRc4jf7+WxnDhmq/r78yJr1vDwJnx759+/T444/L29vbetaZUw+HDx+ubdu22a/4D3t2K7RWQ4U1biCtWW0Pojwh+AEAAECFZk7C6d27tzUhqlKlikaPHq2UlBT7LnAaBAQoomVLhbZqK+3daw8CZ1daWpo++eQTtW/fvnAVUM+ePTVr1qz/LINOfWWMwmt4KfX+oaxYK4cIfgAAAFDhmZ6fBQsWqHXr1tZkyN/fXx999JGys7PtVwCl8NV0xfj76Mgdd+VNmnPtQaBsmOfd6tWrdfvtt6tSpUrWM69mzZpWGXRYWJj9qv8ReEjx7ToqsnYt6Zef7UGUFwQ/AAAAgM30YkydOtU6EcdMhlq2bKn58+dTAI2SOyaF3dpPh6pVlWbNtAcBxxAdHa1x48apXr161jPPlEEPHDhQS5cu/f/PvWmfKqamv8L6XykdPmwPojwg+AEAAAD+x+G8SY359NvNzc2aDF1++eXavHmzfRcohl27FFDXRzHdO0l0SMFBmdB73rx5hdteC4Lv999/v6gMOiZGMb0uUXwNP+mrr/LHUC4Q/AAAAAD/wmx7uPvuuwsnQnfddde/b4UA/pdZMDHpbcV6VFL6iIfzZtf5w4Aj27t3rx577LETyqAfeOAB7dixQ1qwQMG1qulg8/OtIAjlA8EPAAAA8B/Map/LLrvMmgSZVUBjxoyxVgUBJ5WRofDLLlFwjSrSsqX2IFA+mDJos/W1bdu2heF3r+49ND3vWRjk5Sm987aUS2dVeUDwAwAAAJwC03dh+n7M9gczATI9QFOmTLG2SAD/aOUqHaxVR9F9ekqJifYgUL6YZ9+qVas0aNCgwjJofxcXPenrI23Zar8KjozgBwAAACgGc9KXOfHLnPxlJkDmJDBzIhgF0DhBTo6Ovfi8Qnz8lDHutbzZ8zH7BlB+RUVF6dWXX1FdL09df56LMh9/Qjp61L4LR0XwAwAAAJRASkqKnn32WVWpUsUKgEwp6rZt2+y7qPAiIhTe60IdqFlH2r7THgTKu7+tUDN79Wqt9zhXgY3rSUuX2PfgqAh+AAAAgFIICQnRnXfeaYU/5557ru69916Fh4fbd1Fh/fyjttf1UtKA/lI2PSgo545mKu/BJn03R3pklBI6dFeGp5sSq1RS2PU3mkIg+4VwRAQ/AAAAwGmwceNGXXLJJVYAVLVqVb344otKTU2176JCycn7zyNDFeBfQ1mTPrQHgXLElDanpEibNunYJ9MUfsutOnB+E0X7eCsu7/kW7e6uxCaNdLjvFcp4520do+zeoRH8AAAAAKeJ6fn56aef1Lx5cysAqlWrlj755BMKoCuafQcVeEFzhTdtKXH8P8qLzEwpKkJauEB6+WUlXdpbkY2aKdjXXRGerkqo6ae4Dm0VP/g25U75UFq3TkpMlrJ4vjk6gh8AAADgNMvKytKHH34oPz8/KwC64IILtHDhQgqgK4i0z6brQA0fafC9Jg20RwEHc+xY/hatXbuk779X+kMjFN3jUgXXbqAQbx9F+Hgosn5NBV/STTlPjJBmfCXt3i0lJ+d/LcoNgh8AAADgDEnOmyA988wzcnV1tQKgvn37avv27fZdOKWsLCXfdptC/L2lzz+3BwEHYbZwJSZKu3Yr48OpOjLoJkW1bKJQDx8lnFdNyW61FF2nmZL6X63MMc/kr/4xq9bO1KqetGgd2LZBq1cs0eKlf2rN5v2KSvvnTqzcsC1avz/Z/hWKg+AHAAAAOMOCgoI0aNCgwgLooUOHKjIy0r4Lp7J9qyKbNVFw5zbm7Gt7EChDZqupCXuWLlXm888p+vJe2lXdW5HVPBTn4a4QLy9Ft26ltBtvld6fLO3YISUl2V98+h0+uFwzJozUoCvaqp5XJbnkPRfNszH/cpGLRz11vGqIxkyerx1xBSHQYf05prsufW2jMu0RnDqCHwAAAOAsWb9+vXr27GlNcNzd3fXKK68oPT3dvgtnkDRurEKrV1PK6MfZ5oWyYb7vzHNl714d++JzJQ9/WIEtOinKp4ESK/kowcNDEfV9FNurk+JGPiHN+0k6cEA6evSMbuHKDvtTUx67Si29XayAx7V2R13/4Mv6YMZPWrJ6g7Zs3aS1f/6ueV+8qxeGX60LqleSW73uunPMJE1+7W518nHTBU8vVYb9fjh1BD8AAADAWWR6fubOnaumTZtaAVCdOnX02WefKddswUD5lpmpsIt7KbJ2I2nhQnsQOAtysqT4eOnPldLEDxV2y+0KaNFQkf6eivX0UrhPTUW36qj4fgN1bOz4vO/P36TwCOlI3ted8XwyU4HzX9I1zdyt1T0urg3Vd9SXWh+Vbd//Z5lhKzXloYtVt1LRaqDa988TZyUWH8EPAAAAUAZMAfSkSZNUrVo1a1LTrl07LV682L6LcmnFCoXX8FfUlf2kuDh7EDgDzMoccwpXYKC0YJESX3hBwX37KbpJS8VXra4YD29F1vVXXOtmyhl8q/ThB9JfG/K/L8/qKVxp2v7ZvWrnZVb5nCMXj3Ya+vXuvNFTlaj1H9ysZq75X+996xeKtu/g1BH8AAAAAGUoMTFRTz31lCpXrmxNbK666irtMqfsoHzJzfvP6FGK8PVQ8oTxnHqE0898Tx0+nL8ta/a3Shv2kFI69VZU1UZKrFpPse41FVm9puK7X6jsEcOVO3umtG9f/teUiVyF/PyYOtmhzzkuNdTvrb+Kv2InN1aLR3eVl8s58ug/SXtPvlAI/4DgBwAAAHAAgYGBuuWWW/I/FXdx0fDhwxUdzWfb5UbaUQW166CQujWkDRvsQaC0TNiTIm3Zoqy331bmDTcqtlZ9xbpVUWJVNyVU9VVszSZK63299Px46Y/lUkSEQwSP2QFf6Y5GlfJDn3Nc5H35G9pU0oKepKV6poOb3Lq9onVH7DGcMoIfAAAAwIGsXbtW3bt3tyZLHh4eGjdunDIyqDN1ePN+0SHPGkq545b8Yl2gpEzJsjlCfd6P0lOjlNaxi2L9/RTjXVWxVV0V7+ullPadlX77YGn6J9LWrXnfcyl5X+hAq8xyQ/XdkGaqZIU+eVelJhr2fbRZGFdC2Qr87BbVazlSv/M4LDaCHwAAAMDBmALoOXPmqHHjxtakqW7duvryyy8pgHZUR44o8qGHFerlo2MzPuU0LxRPbo6UkiJt2iR9/pVyhjygyGYtFeVfQ3FVqyrBrYpi69ZS6KXdlDDmKeXM+Vbas0dKS8v7Wsd8JmSse0Xd3e0tXnmXa6uRWlTaHWdxP2h42yGaU1Y718oxgh8AAADAQWVmZmrixIny9fW1Jk8dOnTQsmXL7LtwGEFBCmrbRjF16uSX7QInY3LBrCwpMlJavUrZb76h2KuvVFzr8xVerYri3asowctTEU0bK/a665Q+bpyO/fZb/iqgjKP57+HQkvXbYy3laoc+55xTSU0e+eU0nMZ1WKunTdXyJPuXOGUEPwAAAICDS0hI0MiRI1WpUn5fxrXXXqs95hN/OIavPtchLzdl3XunlHM2T0xCuWFWgR05IoWESL/+qqwnn1LCxVfqUM16ivbw1mH3qoqpXlVRrc9X0p03K3vSe9LGjVJcvEPt4DolqQv0WPOCbp+8y8VHN38WXoptXigtgh8AAACgnDh48KBuuukmazJlCqAffPBBxcTE2HdRJlJTlTTwBkX6+0rzv7cHAePv/O1Y5hSuadOUNvg+Rba+QKHubkp09VRiFX8FV2+oqG69lXb/o9L3ed8/AQHSkfKwquffHVn7si5yK1jtk3e5ttezyynmKUsEPwAAAEA5s2rVKl100UXWpMrT01Ovv/66jpjVBDj7Nm5UfKNGCmnZzJzNbw+iwjJbuOLjpSVLlPXyOAVf1Vc769VXhE9NxVeprkBvHx1s01SxV18tjX9d+vNPKSrKnHyevwXMCcR8OUg+LscFPx5X64MDnMFelgh+AAAAgHLo2LFjmj17tho1amRNrurXr6+vv/7aGsfZkzP2VUV4V1XmyBH2CCoU8/fNnLq3d680+zuljnxMwd26KbFBI6VUdldCVXdF1aytyAu76PCd90nTP5P+Wp8fEpqQyOlkauubl8m9IPQxl/dt+pKFiWWK4AcAAAAox44ePaq33npL3t7e1iSrU6dOWrFihX0XZ1Te5D3myisVVq+WtGShPQinl51tirekjX9Jn0xT5m13KumCLoryqaUYN3fFeXoouX4tZfToJD3xmDR7prRvT/7JXU4fzB7R6he7yO244Mel2t36lpO4yhTBDwAAAOAE4uPjNWLECJ133nnWZOu6667Tvn377Ls4I5YuVXytegrvclnepD7ZHoTTMVuwTNhjtmStXaPM115S+nX9lFC/luKruijRs4oifDwVWr+h0vrdII15WVq4SAoPN0fz5b9HhXFE61/pdkLwc473HfqaXZBliuAHAAAAcCL79+/XDTfcYE24TAj0yCOPKC4uzr6L0+bvvxU/YoTCPL2lt96xB+FUjh61wpu0H+cqZOQTiu7YXcGeNRTn4adYNx/FevgrvnkHxd16p7KnTJF27JCSK/pZ49na/8FV8jg++PG6XlOCONOrLBH8AAAAAE7IbPfq3LmzNfEy28AmTJhgbQvDaRITo4C839/gpudLmzbYgyjXzEn8KanShk3S+x8q85ZbFdWgniJ9qirKs6riqlZXmH99BV5yiaKfe1paMD//FC6zqsdJiplPh9SfHlSDSscFP24d9fwqyufLEsEPAAAA4KRM0fM333yjBg0aWBOwhg0batasWRRAnw4/zlWoX02lXHu9daQ7yiET1hzNkkLDpd9+lV4co/hevRVdt4WivWsozs1Dsd7uSmzVSKk39JfGT5B+/12KjMxfDfQ3ac8/yQ2couu8XYqCHxcf3fhpqHVwGcoGwQ8AAADg5MxR72+88Ya8vLysiZg5Cn7lypX2XRRbdraS7rhdod7VpM+/tAdRLpj0ITVd2rFTmvOdch64X/E9Oiuyvo8ivFyU4OmqmLq1FNS5g2Luu0eZ06ZIf22QzHZJpzyF6wzI3qP3+nvJpSD4OaeS6g+ZIzaclh2CHwAAAKCCiI2N1cMPP1xYAD1w4EAdOHDAvotTFhSkQw0aKah1K1OqZA/CYR3LNe3n0rZt0ofvK/nWmxXVuqXCfTx12K2K0jw9FVi7uqKv6KLDTzykI7O+kQ7k/bke5iiqkslW4Kc3qaZLQfBzjirVHayvI1nzU1YIfgAAAIAKZu/evRowYED+hKxSJT322GPWqWA4RdOmKczXV7HD7s3f8gPHY07hMt/TS5fqyDNPKbJPLwXU9VWCR2VluLgo0a2qwps0VdRV1yr1xVekFZukyNj8FUEovaQlerqDW9GqHxcvXTr+L2XYt0smWwdnjdADH+/K+59QHAQ/AAAAQAX1xx9/qGPHjtbEzMfHR++88w4F0P8lJUXh1/RXiJ+39Ouv9iDKnOmtSk+T9uzRsU+m6+iQoYpp0UrxHr7KqOqmRFdXBftVU1iXjkocfLf0xZfS9u3Wn6f1tTjNchU270G1cS3q+qlU6ypN3FTSPqxcxSwfq37dH9aPrBwqNoIfAAAAoAIzRc8zZsxQvXr1rMnZ+eefr2+//VZ/U1z7zzZv1P6mDRXcpb3ZO2cPokyYzh3TvbN8uTRxotIHDFJ8o/Y67FFfya5+inb3VVyj8xV3WV9p1LPS3LlmuZuUni7lEh6ccbnR+v25nqpWuOXLRd6dHtK3+4t7wleuYla+qQGtLtGYJTEsyioBgh8AAAAAysjI0Pjx4+Xp6WlN0rp166Y1a9bYd2H5+2+lj39Vh7y9dXj0c6wUOdtMV8+RI/lHqC/4TekvvKjEy3spvkEtRVWtouiqVRXrX0cxTdoq9eqbpdcmSAt/lyIizTc4p3CVhSP7NPOBjvI5LvzxaDlQ4+YfUJr9kpPKjdOmLx9VzwYdNOzrveJQ+JIh+AEAAABQKDo6Wg888IBcXPK3aNx888158+y8iTbMb46Ce/dWaM360urV9iDOKBOumZLlffukb75R/PBhSujaTbG+NRRbxUPR7v4Kr15PURd2UvI9dylnykfSpo35K4FMUISylx2sheNuUAuP4494r6YLrntc78z8Q7tj/n+ckxm3Vytmv6MRV7dS9UZ99dxPAcq076H4CH4AAAAA/D+7d+/W1VdfbU3SKleurCeeeEKJiYn23Qpq2RIF1Guk4O69pLRTWq+AkjALqZKTrQAn8+3XlXj99Yqs2Vhxbv6Kq+KjWDcvRVT3VdrF3XT4iVHSvJ+kwMD81UBwUJkKX/2ZnhnYTn6VjguA8i6XSt6q36azelzaW1defrG6tm2kaq4ucnFvpMvuf0cLA0pXCQ2CHwAAAAAnsWTJErVv396aoPn6+urdd99VZmbF/Oz98IgROuRVQxr3uj2C0+Pv/NAmLEyaN0fZTz2uoK4ddai6m2I9z1Oyp5uiPbwU3aKN4m+4SbkTJuSvuIqJoaun3MlWzPYF+uzNpzX0pr7q0a6J6vp5y83VTd5+ddWkbU9dddsDGvPeLC3fn0Sfz2lC8AMAAADgpHLzJtdffPGF6tSpYwVATZo00ffff1+xCqCDghTZvrOCWreVtm2zB1FiOfYWro0bpU+mK+uu+xTXqp1i/f0U43Ge4j3OVUwtX8V1bKf0oYOlL6bnvfYvKTkp72uz7DcBcCoIfgAAAACckvT0dL366qvy8PCwAqAePXpo3bp19l0nN/MbhfvX1aFBg9hSVCJ/55/CFR4hrVgpvTNByX17K7pZC0V4+ivR1U+pVWoort75ir+8l/T0E9KsWfndPhy5DpQKwQ8AAACAYomKitL9999fWAB922236dChQ/ZdJ/T338q6/VaF+/ope/rn9iD+k8lqzNHp5nvjl1+UOvJhxV52kYIbVVeke2WlVXJTso+/Apo0UdSNNyjjlbHS4sVSRIR09Gj+ewAoNYIfAAAAACWyY8cO9evXzwp/XF1dNWrUKCUlJdl3ncihAIU18lN8m1bSwYP2IP6R2f1niq8PHNCxjz9W8h33KuyC9gr29lZSlSpKrHKeIr1cFdmlg+IH3y1NmSJt3y5V9OJw4Awi+AEAAABQKr///rvatm1rBUDVq1fX+++/ryyzrcdJZE2bqnC/Kkp/8D4pM9seRSFT9m2KlhcvVubLLyu6z2U65Ouu+Koeyqjsq8TKfoqt3ULJl1ytY8+MkX79Nf8ULvM9UpF6ooAyQvADAAAAoNRMAfT06dNVu3ZtKwBq1qyZ5s2bV/4LoI8eVWyfaxRW3U1a8Is9WMGZk7TMFq69e6U5cxQzcoQOdu2quHr1lVLVXQmuror18VZS69ZKuW6g9OZb0rLlUmRk/hYush7grCL4AQAAAHDapKWl6eWXX1bVqlWtAOjiiy/WX3/9Zd8thzZtUmiN85XYvZspN7IHKxgT1JiFTvFHdWz9Zmnqx0q4707FtGujFC9PpVR1VaynuyJq11JE+wuVPewBacpUacOGvK+Jl45xChdQlgh+AAAAAJx2ERERGjJkiM4991wrALr99tsVHBxs3y0njh1T6rtvKMzdS+lPj5ayK9A2L3OKVnZm3h9kuLRihbLGv6KYawcoqkkrxbh5KaZKVcV4eii5Xm2l9uym7CdGSHNmSQcP5B/TDsBhEPwAAAAAOGO2bdumK6+80gp/qlSpotGjRys5Odm+6+Di4xXV6yKF+nhKGzfZg07uyNH8lU3ffafkR0copltnRfi6KdHrHMV7n6MoLxfFNmys1Guu07HXXpdWrsx/fU6O/QYAHA3BDwAAAIAzyvT8/Pbbb2rTpo0VAPn5+Wny5MnKdvQVNPPnK9LfRxH9L5EynHS7Us4xKSVFWveXciZNUsKgATrQ2E+R7u6Kd/NWgls1RXrXVESXToq9f7A0c4a0a1f+qh6KmYFygeAHAAAAwFmRk5OjadOmqWbNmlYA1KJFC/3888+OWQCdnauUp59SsK+H4j54w3kKic3v9ZEjUnCwMhb+rOTXnldU38sU2bCRIrw9FOnhojhPVyWdf75i+/TVkedflub9Iu0LyA+/jtnvA6DcIPgBAAAAcFalpqbqhRdekJubmxUAXXbZZdq0ycG2UgUFKbpLVwU0aCDt32sPllO5OfkrdHbukGbPVMrwoQq/qJNCG9fWIe/KinSrrMRqPopq21ohg+9Q1ptvmjP680/hysiw3wRAeUXwAwAAAKBMhIeH65577rHCH3MNHjxYoaGh9t0y9uVXCqpeXWE3XZdfdFyu/J33f3OuFBMjbdwoTZqk+NtuVWi7djrg7aUE96pKc3VVkp+vYi9so9Rh9yl7ysfS5s1SXFz+ce0AnAbBDwAAAIAytWXLFl1++eVW+GNWAY0ZM0aHy/JkqOxsxQ8epEC/2kr9+kt7sBzIzJRiY6WlS6UXRyv58p4KremneHcPHXb1VFIlP0V71VV6t4ulEY9Ic+dKhw7lb/0C4LQIfgAAAACUOdPz88svv6hly5ZWAFSjRg1NmTLF6gU663ZsV3jrJops2UVylBVI/8SszElLk/btU870z5UwZKgC27VTiLenDleqrLRKrgr39lFo6zaKGXCd9OZb0oYN+eFQuVvFBKCkCH4AAAAAOAxz0pcJfEzwYwKgVq1a6ddffz27BdAT39LBGn7S8BGOt+2pYFXPsmXKeesthd00QDtaNVFstVqKr1JNoe4+Cq5bX5Fduilz2CPS519Jpj/JHKGf6+CnqAE4Iwh+AAAAADiclJQUa8tXlSpVrADoiiuu0NatW+27Z1Bmpg73vk4HatWXfphrD5YhkzulH5H2H5R+XaDsZ8cq5uJ+im/QUkke1ZTgVkUxnlUU17Cpkq/oo6xnRyv7hznSwf35hc6s7AEqPIIfAAAAAA7LlD2b0mcT/px77rlWGbQphT5jNmxQrG8rxfbsK0VF2YNnkVnYlJv3X5KSpD17pK++UMbwO5XcuY3ifb2VVMVTsW7eivOtrYQmrZQxYID0+rj8Xp+ICOno0fz3AQAbwQ8AAAAAh2eOe7/00kutAKhq1arWcfDmWPjT6u+/lfvsy4qt1Eh6dqwZyB8/G3KPSUnJ0l+bpPcmKeX66xVVr7bi3M9Vkuc5SvJyUYy3q+LatVTyfXdLn06TduyQEhPtNwCAf0bwAwAAAKBcMD0/P//8s1q0aGEFQDVr1tS0adNOXwF0WpoiO3RVWM0W0orV9uAZYjqLMjKkkBDph++V+dRIRXftqEh/b0W7nqsEt0pK8XJXQs0aiujdV2nPj5EWLZSCgqxTxwDgVBH8AAAAAChXTAH05MmT5efnZwVAbdq00W+//Vb6AujFixXqXVOJA66XkpPswdPoWHZ+7445WevjKcoafLdimzdXvJ+vYjwrK75qJSX7einpglaKu/0WpU16V1qxQoqMljJzzuoCJADOg+AHAAAAQLmUnJys0aNHy9XV1QqA+vTpo+3bt9t3iykzU4nDRyjC3Uf66IO8gdOQsphiZXMKl1nVs2SZNH6CUq4aqLimrRXtVU1Jbu6KdK+q0Pq1FdyrmxIeeUhZ06dLf/0lJSRIWVn2GwFAyRH8AAAAACjXgoODdfvttxcWQA8ZMkSRkZH23VMUEqx9ndsoqEF9afdue7AETNiTliYFBEi/zFfWE48q7tIeiqhRTwmuNZTmUlMpbvUUWaepUi6/UonPjFbWHHMK18H81UBn89h6ABUCwQ8AAAAAp7Bhwwb16tXLCoDc3d318ssvK82EMKdizmwdqOWh6EE3luBkrL8lUzR94IA09WOl3HWH9rZvo/1erjrsXllJVavqkLunQlq2UtyAG5T76hvSqtX5p4adrn4iAPgXBD8AAAAAnIbp+Zk3b56aNWtmBUC1a9fW9OnTlZuba7/iH6SnK+GmQQr1rCPNnG0P/ofMbCkmxuoFynzpVUX2uUYHatZVjGsVpZhyZp9zFV6npmIuulQZwx+WZs3MP579dJ9EBgD/geAHAAAAgNPJysrS+++/r+rVq1sBUNu2bfX777/bd//H1q2KaHGhDp1/Uf4qnH9igiOzeshsA/t2lpKfeECB3VsrpJ6/Ej28lVS1ukK9aii8eRuF9OuttBeelebPz18FZE7vOnaS4AkAziCCHwAAAABOKykpSaNGjSosgO7fv7927txp37W9N1EBfrUU/sBIeyCPqdox5cpxcdLaddKHk5V8+y2KbtdaUX4+ivOopBjPSoqr7aW4Nk2VfOtNypo4UVq2TDL9QibsAQAHQPADAAAAwOkdOnRIt912mxX+uLi46P7771eUWd2TkqLUq6/QwYa1pZ/nSZlH80/hWv6H9NpLSrr6KiU1aKFE1+pKrOKtOC8fxdbwVWSHjkq9/xFp2lRpy2YpPj5/VRAAOBiCHwAAAAAVxrp169SjRw8rAPLw8NDi9yYqrHEtJTSpL73/vjKHjtDhjp0V7VNZye7nKtGtsmKqeCrSr4FiL+6j5CdHSfPmSkFBUla2/a4A4LgIfgAAAABUKKYA+vvvv1eXLl0U9sTDCnc/T0dcKinJxU0pVfyU5OanOA9fpbRsrehbblDa1A+kLRvzt31Ze8AAoPwg+AEAAABQIf0dG6foCzso3r2KUiu7Kb1mdQX2aq/Apx5RxtdzpM1bpORkKZuVPQDKL4IfAAAAABXT73/oUIeLlXXFNdLoMdIPP0gBAVJaKn09AJwGwQ8AAACACilj8yYd+3OlFBEhHTlijwKAcyH4AQAAAFDhZYdu1KLfFmjBglO4fvtNCxf9rsVLl2vVus3aFRitVHaDAXBQBD8AAAAAKrzMLbP1+isv6dlH79DFjdzlcs451slfp3a5yLVaY3Xqe4cef/0rLQ84bL8rAJQ9gh8AAAAAOE72odka0sL1uGDHTV3u/0g/LN2ofaFxSj2SreyMZEUf2qk1C77We8/coe713QrDIhef1hr44lztTbPfEADKEMEPAAAAAJwgVb882kSVCoMfbw36yhzl/u+yw//UpDsukIeL/TUubmp682RtYvEPgDJG8AMAAAAAJ8jUltcvkXsxgh9Lxg5NublRUWDk4qWuY5Yp0b4NAGWB4AcAAAAATpCtPe/1k0dxg5882Xs/1LXVXeyvO0cu1Qdo8j6anwGUHYIfAAAAADhBtvZO6l+i4Ee5oZp+k09RObSLtwZ8FJD3jgBQNgh+AAAAAOAEpQh+lKFlT7eVa+HXuqrVk7/njQJA2SD4AQAAAIATlC74+f2JlicEPy2fIPgBUHYIfgAAAADgBKUIfrL3alJ/D/vrzOWh/pP2sdULQJkh+AEAAACAE5Q8+MlYP04XexxX7uzdVxN3Ztp3AeDsI/gBAAAAgBOULPjJjf1TY3v7HVfs7K4OTy1UrH0fAMoCwQ8AAAAAnKCYwU9ukvYt+kAP9KylSseFPi1v+1gbD9uvAYAyQvADAAAAACf43+Cnkmq0ukTX3nq3hj74iB57fKRGjnxMjzw4RHcM7KMuTaupkkvBa13k1eQKPfj+EgUdsd8OAMoQwQ8AAAAAnOB/gx8XuXrXVpPW7dSxS1d179FdXTtfqDZNasqjUlGfj7lcvFrqqkde12cLdyqORmcADoDgBwAAAABOcOpbvTITDmr9L59p3AN91dzruBDIxVV1u9+nd5eF5r0bAJQdgh8AAAAAOEHJyp2Tts/UE5ce1/OTd7n4dNZjPwYr134NAJxtBD8AAAAAcIKSBT9GbuSvGtnRvehkr7yrUqPB+jqI6AdA2SD4AQAAAIATlDz4kXIVOWeIGlcqCn7MCV+9XtuoTPsVAHA2EfwAAAAAwAlKE/zkSf5ZDzWuVBT85F0e10xWAGU/AMoAwQ8AAAAAnKCUwU/2Pk3q73FC8OPW9RWt43h3AGWA4AcAAAAATlDa4Gfv/wt+PPq9pz2s+AFQBgh+AAAAAOAEpQx+EuZqeMPjt3q5qv3o5cqwbwPA2UTwAwAAAAAnyNbud/uWMPjJ1v6pA1XbpeBrz5GL96V6fSP7vACUDYIfAAAAADhBpv4a11PuxQ5+chW3+k1dVfe41T4u3ur63BIl2K8AgLON4AcAAAAAThCnb++tLZfiBD+pgVo6+UH1rHV86OOhNoOna1ua/RoAKAMEPwAAAABQKE0HfxqlXtVdigKcc1xUrWlX9b3xXj06+mWNn/CO3v9oiqZO+UDvjH9ej917rbo08DguKHKRW/2eGjJxsYLY4QWgjBH8AAAAAKjw0n5/RQP6XqGebevJ47h+npNeLi6q5OalajXrq2mbzrq4/426Z8QLenfGYu1JyLXfGQDKFsEPAAAAAACAkyL4AQAAAAAAcFIEPwAAAAAAAE6K4AcAAAAAAMBJEfwAAAAAAAA4KYIfAAAAAAAAJ0XwAwAAAAAA4KQIfgAAAAAAAJwUwQ8AAAAAAICTIvgBAAAAAABwUgQ/AAAAAAAATorgBwAAAAAAwEkR/AAAAAAAADgpgh8AAAAAAAAnRfADAAAAAADgpAh+AAAAAAAAnBTBDwAAAAAAgJMi+AEAAAAAAHBSBD8AAAAAAABOiuAHAAAAAADASRH8AAAAAAAAOCmCHwAAAAAAACdF8AMAAAAAAOCkCH4AAAAAAACcFMEPAAAAAACAkyL4AQAAAAAAcFIEPwAAAAAAAE6K4AcAAAAAAMBJEfwAAAAAAAA4KYIfAAAAAAAAJ0XwAwAAAAAA4KQIfgAAAAAAAJwUwQ8AAAAAAICTIvgBAAAAAABwUgQ/AAAAAAAATorgBwAAAAAAwEkR/AAAAAAAADgpgh8AAAAAAACnJP0fgm1GiJlmbrMAAAAASUVORK5CYII=;" vertex="1" parent="1">
          <mxGeometry x="-830" y="80" width="2968.38" height="1510" as="geometry" />
        </mxCell>
      </root>
    </mxGraphModel>
  </diagram>
</mxfile>
